<?xml version="1.0" encoding="UTF-8"?>
<svg width="786px" height="786px" viewBox="0 0 786 786" version="1.1" xmlns="http://www.w3.org/2000/svg" xmlns:xlink="http://www.w3.org/1999/xlink">
    <!-- Generator: Sketch 41.1 (35376) - http://www.bohemiancoding.com/sketch -->
    <title>home-screen-bottom</title>
    <desc>Created with Sketch.</desc>
    <defs>
        <linearGradient x1="93.6339833%" y1="84.6117424%" x2="5.93175238%" y2="0%" id="linearGradient-1">
            <stop stop-color="#0B8AC2" offset="0%"></stop>
            <stop stop-color="#4BBFF1" offset="100%"></stop>
        </linearGradient>
    </defs>
    <g id="Symbols" stroke="none" stroke-width="1" fill="none" fill-rule="evenodd" opacity="0.5">
        <g id="home-screen-bottom" fill="url(#linearGradient-1)">
            <g id="Group" transform="translate(0.000000, 619.000000)">
                <path d="M504.839057,66 L294.177291,66 C294.177291,66 293.618229,117.467191 277.972541,132.44357 C262.326853,147.419953 233.720068,149.027888 229.358287,153.705513 C227.754018,156.663581 227.3516,159.90337 229.358287,161.678743 C240.345108,167.387574 375.725001,166.99423 399.508172,166.99423 C423.291346,166.99423 558.67124,167.387574 569.658061,161.678743 C571.662045,159.90337 571.262329,156.663581 569.658061,153.705513 C565.296279,149.027888 536.689495,147.419953 521.043807,132.44357 L504.839057,66 Z" id="Path-path-Copy"></path>
                <rect id="Rectangle-2-Copy-3" x="0" y="0" width="786" height="64" rx="2"></rect>
            </g>
        </g>
    </g>
</svg>