<?xml version="1.0" encoding="UTF-8"?>
<svg width="412px" height="108px" viewBox="0 0 412 108" version="1.1" xmlns="http://www.w3.org/2000/svg" xmlns:xlink="http://www.w3.org/1999/xlink">
    <!-- Generator: Sketch 41.1 (35376) - http://www.bohemiancoding.com/sketch -->
    <title>map-frame-card</title>
    <desc>Created with Sketch.</desc>
    <defs>
        <path d="M200.637751,83.5711367 L196.576203,87.6326854 C196.186282,88.0226063 195.554582,88.0230927 195.162107,87.6306177 L191.102626,83.5711367 L2.4989932,83.5711367 C1.39497974,83.5711367 0.5,82.6672957 0.5,81.5809836 L0.5,0.571136709 L391.5,0.571136709 L391.5,81.5809836 C391.5,82.6801148 390.608228,83.5711367 389.501007,83.5711367 L200.637751,83.5711367 Z" id="path-1"></path>
        <filter x="-50%" y="-50%" width="200%" height="200%" filterUnits="objectBoundingBox" id="filter-2">
            <feMorphology radius="0.5" operator="dilate" in="SourceAlpha" result="shadowSpreadOuter1"></feMorphology>
            <feOffset dx="2" dy="2" in="shadowSpreadOuter1" result="shadowOffsetOuter1"></feOffset>
            <feGaussianBlur stdDeviation="5" in="shadowOffsetOuter1" result="shadowBlurOuter1"></feGaussianBlur>
            <feComposite in="shadowBlurOuter1" in2="SourceAlpha" operator="out" result="shadowBlurOuter1"></feComposite>
            <feColorMatrix values="0 0 0 0 0.176693854   0 0 0 0 0.191902953   0 0 0 0 0.248937075  0 0 0 0.439764493 0" type="matrix" in="shadowBlurOuter1"></feColorMatrix>
        </filter>
        <polygon id="path-3" points="1.37517361 6.20792079 10.6048032 6.20792079 11.9725694 10.9147569 0 10.9706147"></polygon>
        <mask id="mask-4" maskContentUnits="userSpaceOnUse" maskUnits="objectBoundingBox" x="0" y="0" width="11.9725694" height="4.76269393" fill="white">
            <use xlink:href="#path-3"></use>
        </mask>
        <path d="M5.94570967,0 C4.19892522,0 2.77777778,1.4134543 2.77777778,3.15063649 L2.77777778,3.15063649 C2.77777778,5.44219943 5.45831015,8.13441832 5.57242169,8.24790687 L5.57242169,8.24790687 C5.67551148,8.35043383 5.81061057,8.40169731 5.94570967,8.40169731 L5.94570967,8.40169731 C6.08080876,8.40169731 6.21603986,8.35043383 6.31912964,8.24790687 L6.31912964,8.24790687 C6.43310919,8.13441832 9.11364156,5.44219943 9.11364156,3.15063649 L9.11364156,3.15063649 C9.11364156,1.4134543 7.69249411,0 5.94570967,0 L5.94570967,0 Z" id="path-5"></path>
        <mask id="mask-6" maskContentUnits="userSpaceOnUse" maskUnits="objectBoundingBox" x="0" y="0" width="6.33586378" height="8.40169731" fill="white">
            <use xlink:href="#path-5"></use>
        </mask>
        <rect id="path-7" x="0" y="0" width="84" height="30"></rect>
        <mask id="mask-8" maskContentUnits="userSpaceOnUse" maskUnits="objectBoundingBox" x="0" y="0" width="84" height="30" fill="white">
            <use xlink:href="#path-7"></use>
        </mask>
        <ellipse id="path-9" cx="5.88000021" cy="5.59676435" rx="5.28000021" ry="5.27777778"></ellipse>
        <mask id="mask-10" maskContentUnits="userSpaceOnUse" maskUnits="objectBoundingBox" x="0" y="0" width="10.5600004" height="10.5555556" fill="white">
            <use xlink:href="#path-9"></use>
        </mask>
    </defs>
    <g id="Symbols" stroke="none" stroke-width="1" fill="none" fill-rule="evenodd">
        <g id="map-frame-card__outlined" transform="translate(9.000000, 8.000000)">
            <g id="map-frame-card" transform="translate(-1.000000, 0.000000)">
                <g id="Combined-Shape">
                    <use fill="black" fill-opacity="1" filter="url(#filter-2)" xlink:href="#path-1"></use>
                    <use stroke="#E1E8F5" stroke-width="1" fill="#FFFFFF" fill-rule="evenodd" xlink:href="#path-1"></use>
                </g>
                <rect id="Rectangle-2-Copy-3" fill="#EEF2F8" x="307" y="1" width="84" height="52"></rect>
                <g id="Group-12-Copy" transform="translate(82.000000, 50.000000)">
                    <path d="M21.3295898,10.0224609 L25.8364258,10.0224609 L25.8364258,11 L20.0791016,11 L20.0791016,1.7578125 L21.3295898,1.7578125 L21.3295898,10.0224609 Z M29.8989258,11.1333008 C28.9129182,11.1333008 28.1438016,10.818037 27.5915527,10.1875 C27.0393039,9.55696299 26.7631836,8.7275442 26.7631836,7.69921875 L26.7631836,7.41992188 C26.7631836,6.43391434 27.0477673,5.61824867 27.6169434,4.97290039 C28.1861194,4.32755211 28.8811808,4.00488281 29.7021484,4.00488281 C30.6204473,4.00488281 31.3091611,4.29052449 31.7683105,4.86181641 C32.22746,5.43310833 32.4570312,6.19270359 32.4570312,7.140625 L32.4570312,7.80078125 L28.0644531,7.80078125 L28.0454102,7.83251953 C28.0454102,8.52230163 28.1977524,9.08194772 28.5024414,9.51147461 C28.8071304,9.9410015 29.2726206,10.1557617 29.8989258,10.1557617 C30.322105,10.1557617 30.6934392,10.0954596 31.0129395,9.97485352 C31.3324397,9.85424744 31.6064442,9.6881521 31.8349609,9.4765625 L32.3237305,10.2890625 C32.0782865,10.5260429 31.7545593,10.725992 31.3525391,10.888916 C30.9505188,11.05184 30.4659859,11.1333008 29.8989258,11.1333008 Z M29.7021484,4.98876953 C29.2662739,4.98876953 28.905519,5.15698074 28.619873,5.4934082 C28.3342271,5.82983567 28.1596683,6.26041404 28.0961914,6.78515625 L28.1088867,6.81689453 L31.206543,6.81689453 L31.206543,6.71533203 C31.206543,6.21598058 31.0838228,5.80338705 30.8383789,5.47753906 C30.592935,5.15169108 30.2141953,4.98876953 29.7021484,4.98876953 Z M35.2119141,11 L33.9614258,11 L33.9614258,4.13183594 L35.2119141,4.13183594 L35.2119141,11 Z M35.2119141,2.37353516 L33.9614258,2.37353516 L33.9614258,1.09765625 L35.2119141,1.09765625 L35.2119141,2.37353516 Z M39.8647461,10.1557617 C40.2498392,10.1557617 40.5862616,10.0277519 40.8740234,9.77172852 C41.1617853,9.5157051 41.3056641,9.20149926 41.3056641,8.82910156 L42.4355469,8.82910156 L42.4545898,8.8671875 C42.471517,9.45963838 42.2176133,9.98543065 41.6928711,10.4445801 C41.1681289,10.9037295 40.55876,11.1333008 39.8647461,11.1333008 C38.8998975,11.1333008 38.1551133,10.8053418 37.6303711,10.1494141 C37.1056289,9.4934863 36.8432617,8.6767627 36.8432617,7.69921875 L36.8432617,7.43261719 C36.8432617,6.46353682 37.1066868,5.64998701 37.6335449,4.99194336 C38.160403,4.3338997 38.9041293,4.00488281 39.8647461,4.00488281 C40.6307004,4.00488281 41.2580542,4.24185961 41.7468262,4.71582031 C42.2355981,5.18978102 42.471517,5.77164369 42.4545898,6.46142578 L42.4418945,6.49951172 L41.3056641,6.49951172 C41.3056641,6.08056431 41.1691908,5.72404118 40.8962402,5.42993164 C40.6232897,5.1358221 40.2794617,4.98876953 39.8647461,4.98876953 C39.2511363,4.98876953 38.803631,5.22680426 38.5222168,5.70288086 C38.2408026,6.17895746 38.1000977,6.75553047 38.1000977,7.43261719 L38.1000977,7.69921875 C38.1000977,8.38900084 38.2386868,8.97086352 38.5158691,9.44482422 C38.7930515,9.91878492 39.2426727,10.1557617 39.8647461,10.1557617 Z M46.7836914,11.1333008 C45.7976839,11.1333008 45.0285672,10.818037 44.4763184,10.1875 C43.9240695,9.55696299 43.6479492,8.7275442 43.6479492,7.69921875 L43.6479492,7.41992188 C43.6479492,6.43391434 43.932533,5.61824867 44.501709,4.97290039 C45.070885,4.32755211 45.7659464,4.00488281 46.5869141,4.00488281 C47.5052129,4.00488281 48.1939267,4.29052449 48.6530762,4.86181641 C49.1122256,5.43310833 49.3417969,6.19270359 49.3417969,7.140625 L49.3417969,7.80078125 L44.9492188,7.80078125 L44.9301758,7.83251953 C44.9301758,8.52230163 45.082518,9.08194772 45.387207,9.51147461 C45.6918961,9.9410015 46.1573862,10.1557617 46.7836914,10.1557617 C47.2068706,10.1557617 47.5782048,10.0954596 47.8977051,9.97485352 C48.2172054,9.85424744 48.4912098,9.6881521 48.7197266,9.4765625 L49.2084961,10.2890625 C48.9630522,10.5260429 48.6393249,10.725992 48.2373047,10.888916 C47.8352844,11.05184 47.3507515,11.1333008 46.7836914,11.1333008 Z M46.5869141,4.98876953 C46.1510395,4.98876953 45.7902846,5.15698074 45.5046387,5.4934082 C45.2189927,5.82983567 45.0444339,6.26041404 44.980957,6.78515625 L44.9936523,6.81689453 L48.0913086,6.81689453 L48.0913086,6.71533203 C48.0913086,6.21598058 47.9685885,5.80338705 47.7231445,5.47753906 C47.4777006,5.15169108 47.0989609,4.98876953 46.5869141,4.98876953 Z M54.7373047,9.15283203 C54.7373047,8.87776555 54.6325694,8.65348394 54.4230957,8.47998047 C54.213622,8.306477 53.8168975,8.15413477 53.2329102,8.02294922 C52.4246379,7.84944575 51.8036317,7.60612136 51.369873,7.29296875 C50.9361144,6.97981614 50.7192383,6.56087502 50.7192383,6.03613281 C50.7192383,5.47753627 50.957273,4.99935095 51.4333496,4.6015625 C51.9094262,4.20377405 52.5262006,4.00488281 53.2836914,4.00488281 C54.0623411,4.00488281 54.6928687,4.21646924 55.175293,4.63964844 C55.6577173,5.06282764 55.8883465,5.55582401 55.8671875,6.11865234 L55.8544922,6.15673828 L54.6611328,6.15673828 C54.6611328,5.86051284 54.5310072,5.59179808 54.270752,5.35058594 C54.0104967,5.10937379 53.6814799,4.98876953 53.2836914,4.98876953 C52.843585,4.98876953 52.5145681,5.08821515 52.2966309,5.28710938 C52.0786936,5.4860036 51.9697266,5.7229804 51.9697266,5.99804688 C51.9697266,6.26888156 52.0638825,6.47835212 52.2521973,6.62646484 C52.440512,6.77457756 52.8287731,6.90999288 53.4169922,7.03271484 C54.2591188,7.21045011 54.8981098,7.46223795 55.3339844,7.78808594 C55.769859,8.11393392 55.987793,8.53922264 55.987793,9.06396484 C55.987793,9.67334289 55.7412948,10.170571 55.248291,10.5556641 C54.7552872,10.9407571 54.1110066,11.1333008 53.3154297,11.1333008 C52.4394487,11.1333008 51.749677,10.911135 51.2460938,10.4667969 C50.7425105,10.0224587 50.5034178,9.50407197 50.5288086,8.91162109 L50.5415039,8.87353516 L51.7348633,8.87353516 C51.7560222,9.31787332 51.9210597,9.64265848 52.2299805,9.84790039 C52.5389013,10.0531423 52.9007141,10.1557617 53.3154297,10.1557617 C53.7597678,10.1557617 54.1078275,10.0616058 54.3596191,9.87329102 C54.6114108,9.68497627 54.7373047,9.44482568 54.7373047,9.15283203 Z M59.2822266,2.47509766 L59.2822266,4.13183594 L60.5834961,4.13183594 L60.5834961,5.05859375 L59.2822266,5.05859375 L59.2822266,9.22900391 C59.2822266,9.5506201 59.3488763,9.77701757 59.4821777,9.90820312 C59.6154792,10.0393887 59.7921538,10.1049805 60.012207,10.1049805 C60.0841475,10.1049805 60.1645503,10.0954591 60.253418,10.076416 C60.3422856,10.057373 60.4163408,10.0372722 60.4755859,10.0161133 L60.6469727,10.8730469 C60.5538732,10.9492191 60.4163421,11.0116371 60.234375,11.0603027 C60.0524079,11.1089683 59.8725595,11.1333008 59.6948242,11.1333008 C59.1870092,11.1333008 58.7828791,10.9799006 58.4824219,10.6730957 C58.1819646,10.3662908 58.0317383,9.88493167 58.0317383,9.22900391 L58.0317383,5.05859375 L56.9399414,5.05859375 L56.9399414,4.13183594 L58.0317383,4.13183594 L58.0317383,2.47509766 L59.2822266,2.47509766 Z M64.7666016,11.1333008 C63.780594,11.1333008 63.0114774,10.818037 62.4592285,10.1875 C61.9069797,9.55696299 61.6308594,8.7275442 61.6308594,7.69921875 L61.6308594,7.41992188 C61.6308594,6.43391434 61.9154431,5.61824867 62.4846191,4.97290039 C63.0537952,4.32755211 63.7488566,4.00488281 64.5698242,4.00488281 C65.4881231,4.00488281 66.1768369,4.29052449 66.6359863,4.86181641 C67.0951358,5.43310833 67.324707,6.19270359 67.324707,7.140625 L67.324707,7.80078125 L62.9321289,7.80078125 L62.9130859,7.83251953 C62.9130859,8.52230163 63.0654282,9.08194772 63.3701172,9.51147461 C63.6748062,9.9410015 64.1402963,10.1557617 64.7666016,10.1557617 C65.1897808,10.1557617 65.5611149,10.0954596 65.8806152,9.97485352 C66.2001155,9.85424744 66.47412,9.6881521 66.7026367,9.4765625 L67.1914062,10.2890625 C66.9459623,10.5260429 66.6222351,10.725992 66.2202148,10.888916 C65.8181946,11.05184 65.3336617,11.1333008 64.7666016,11.1333008 Z M64.5698242,4.98876953 C64.1339496,4.98876953 63.7731948,5.15698074 63.4875488,5.4934082 C63.2019029,5.82983567 63.0273441,6.26041404 62.9638672,6.78515625 L62.9765625,6.81689453 L66.0742188,6.81689453 L66.0742188,6.71533203 C66.0742188,6.21598058 65.9514986,5.80338705 65.7060547,5.47753906 C65.4606108,5.15169108 65.081871,4.98876953 64.5698242,4.98876953 Z M71.9775391,5.23632812 L71.3364258,5.19824219 C71.006346,5.19824219 70.7281099,5.27652917 70.501709,5.43310547 C70.2753081,5.58968177 70.1007493,5.80973166 69.9780273,6.09326172 L69.9780273,11 L68.7275391,11 L68.7275391,4.13183594 L69.8447266,4.13183594 L69.965332,5.13476562 C70.1599945,4.7792951 70.4001451,4.50211688 70.685791,4.30322266 C70.971437,4.10432843 71.3004539,4.00488281 71.6728516,4.00488281 C71.765951,4.00488281 71.8548173,4.01228834 71.9394531,4.02709961 C72.024089,4.04191088 72.0939125,4.05777986 72.1489258,4.07470703 L71.9775391,5.23632812 Z M80.5024414,9.15283203 C80.5024414,8.87776555 80.3977061,8.65348394 80.1882324,8.47998047 C79.9787587,8.306477 79.5820342,8.15413477 78.9980469,8.02294922 C78.1897746,7.84944575 77.5687684,7.60612136 77.1350098,7.29296875 C76.7012511,6.97981614 76.484375,6.56087502 76.484375,6.03613281 C76.484375,5.47753627 76.7224097,4.99935095 77.1984863,4.6015625 C77.6745629,4.20377405 78.2913374,4.00488281 79.0488281,4.00488281 C79.8274779,4.00488281 80.4580054,4.21646924 80.9404297,4.63964844 C81.422854,5.06282764 81.6534832,5.55582401 81.6323242,6.11865234 L81.6196289,6.15673828 L80.4262695,6.15673828 C80.4262695,5.86051284 80.2961439,5.59179808 80.0358887,5.35058594 C79.7756335,5.10937379 79.4466166,4.98876953 79.0488281,4.98876953 C78.6087218,4.98876953 78.2797049,5.08821515 78.0617676,5.28710938 C77.8438303,5.4860036 77.7348633,5.7229804 77.7348633,5.99804688 C77.7348633,6.26888156 77.8290192,6.47835212 78.017334,6.62646484 C78.2056487,6.77457756 78.5939098,6.90999288 79.1821289,7.03271484 C80.0242555,7.21045011 80.6632465,7.46223795 81.0991211,7.78808594 C81.5349957,8.11393392 81.7529297,8.53922264 81.7529297,9.06396484 C81.7529297,9.67334289 81.5064315,10.170571 81.0134277,10.5556641 C80.520424,10.9407571 79.8761433,11.1333008 79.0805664,11.1333008 C78.2045855,11.1333008 77.5148137,10.911135 77.0112305,10.4667969 C76.5076472,10.0224587 76.2685546,9.50407197 76.2939453,8.91162109 L76.3066406,8.87353516 L77.5,8.87353516 C77.521159,9.31787332 77.6861964,9.64265848 77.9951172,9.84790039 C78.304038,10.0531423 78.6658508,10.1557617 79.0805664,10.1557617 C79.5249046,10.1557617 79.8729642,10.0616058 80.1247559,9.87329102 C80.3765475,9.68497627 80.5024414,9.44482568 80.5024414,9.15283203 Z M83.0224609,7.69287109 C83.0224609,6.58837338 83.2583798,5.69759453 83.7302246,5.02050781 C84.2020694,4.34342109 84.863277,4.00488281 85.7138672,4.00488281 C86.1285828,4.00488281 86.4946273,4.08422772 86.8120117,4.24291992 C87.1293961,4.40161212 87.4002267,4.63118339 87.6245117,4.93164062 L87.8022461,4.13183594 L88.7607422,4.13183594 L88.7607422,13.640625 L87.5102539,13.640625 L87.5102539,10.3525391 C87.2902007,10.6106784 87.0299494,10.8053379 86.7294922,10.9365234 C86.429035,11.067709 86.0862649,11.1333008 85.7011719,11.1333008 C84.8632771,11.1333008 84.2073591,10.8296743 83.7333984,10.2224121 C83.2594377,9.61514996 83.0224609,8.8164112 83.0224609,7.82617188 L83.0224609,7.69287109 Z M84.2729492,7.82617188 C84.2729492,8.52018576 84.4157701,9.08194772 84.701416,9.51147461 C84.987062,9.9410015 85.4261038,10.1557617 86.0185547,10.1557617 C86.3613298,10.1557617 86.654377,10.0795906 86.8977051,9.92724609 C87.1410331,9.77490158 87.345214,9.56119929 87.5102539,9.28613281 L87.5102539,5.8203125 C87.345214,5.56217319 87.1410331,5.35905022 86.8977051,5.2109375 C86.654377,5.06282478 86.3655616,4.98876953 86.03125,4.98876953 C85.4345673,4.98876953 84.9923517,5.24161531 84.7045898,5.74731445 C84.416828,6.2530136 84.2729492,6.90152599 84.2729492,7.69287109 L84.2729492,7.82617188 Z M95.0576172,9.984375 C94.8417958,10.3525409 94.5646176,10.6360667 94.2260742,10.8349609 C93.8875309,11.0338552 93.496096,11.1333008 93.0517578,11.1333008 C92.3027306,11.1333008 91.7187521,10.8942081 91.2998047,10.4160156 C90.8808573,9.93782313 90.6713867,9.19303891 90.6713867,8.18164062 L90.6713867,4.13183594 L91.921875,4.13183594 L91.921875,8.19433594 C91.921875,8.92643595 92.0297841,9.43001165 92.2456055,9.70507812 C92.4614269,9.9801446 92.7978493,10.1176758 93.2548828,10.1176758 C93.699221,10.1176758 94.0663234,10.0277516 94.3562012,9.84790039 C94.6460789,9.66804923 94.8650709,9.41308759 95.0131836,9.08300781 L95.0131836,4.13183594 L96.2636719,4.13183594 L96.2636719,11 L95.1401367,11 L95.0576172,9.984375 Z M102.306641,11 C102.264323,10.7926422 102.231527,10.6096199 102.208252,10.4509277 C102.184977,10.2922355 102.171224,10.1324878 102.166992,9.97167969 C101.934244,10.3017595 101.630617,10.5778797 101.256104,10.8000488 C100.88159,11.0222179 100.478518,11.1333008 100.046875,11.1333008 C99.3317022,11.1333008 98.7868671,10.9502785 98.4123535,10.5842285 C98.0378399,10.2181785 97.8505859,9.71354488 97.8505859,9.0703125 C97.8505859,8.41438474 98.1161269,7.90128766 98.6472168,7.53100586 C99.1783067,7.16072406 99.8987585,6.97558594 100.808594,6.97558594 L102.166992,6.97558594 L102.166992,6.29638672 C102.166992,5.89436648 102.044272,5.57592891 101.798828,5.34106445 C101.553384,5.1062 101.206382,4.98876953 100.757812,4.98876953 C100.35156,4.98876953 100.023602,5.09033102 99.7739258,5.29345703 C99.5242501,5.49658305 99.3994141,5.73990744 99.3994141,6.0234375 L98.2124023,6.03613281 L98.199707,5.99804688 C98.1700845,5.49869542 98.4038875,5.04166874 98.901123,4.62695312 C99.3983586,4.21223751 100.040523,4.00488281 100.827637,4.00488281 C101.606286,4.00488281 102.232582,4.20271612 102.706543,4.59838867 C103.180504,4.99406122 103.41748,5.56428664 103.41748,6.30908203 L103.41748,9.61621094 C103.41748,9.86165487 103.430176,10.0986317 103.455566,10.3271484 C103.480957,10.5556652 103.527506,10.7799468 103.595215,11 L102.306641,11 Z M100.230957,10.0859375 C100.683759,10.0859375 101.092121,9.96956497 101.456055,9.73681641 C101.819989,9.50406785 102.056966,9.23746895 102.166992,8.93701172 L102.166992,7.81982422 L100.76416,7.81982422 C100.260577,7.81982422 99.8575048,7.94677607 99.5549316,8.20068359 C99.2523585,8.45459111 99.1010742,8.75292797 99.1010742,9.09570312 C99.1010742,9.40039215 99.1962881,9.64160067 99.3867188,9.81933594 C99.5771494,9.9970712 99.8585593,10.0859375 100.230957,10.0859375 Z M108.48291,5.23632812 L107.841797,5.19824219 C107.511717,5.19824219 107.233481,5.27652917 107.00708,5.43310547 C106.780679,5.58968177 106.60612,5.80973166 106.483398,6.09326172 L106.483398,11 L105.23291,11 L105.23291,4.13183594 L106.350098,4.13183594 L106.470703,5.13476562 C106.665366,4.7792951 106.905516,4.50211688 107.191162,4.30322266 C107.476808,4.10432843 107.805825,4.00488281 108.178223,4.00488281 C108.271322,4.00488281 108.360188,4.01228834 108.444824,4.02709961 C108.52946,4.04191088 108.599284,4.05777986 108.654297,4.07470703 L108.48291,5.23632812 Z M112.507324,11.1333008 C111.521317,11.1333008 110.7522,10.818037 110.199951,10.1875 C109.647702,9.55696299 109.371582,8.7275442 109.371582,7.69921875 L109.371582,7.41992188 C109.371582,6.43391434 109.656166,5.61824867 110.225342,4.97290039 C110.794518,4.32755211 111.489579,4.00488281 112.310547,4.00488281 C113.228846,4.00488281 113.91756,4.29052449 114.376709,4.86181641 C114.835858,5.43310833 115.06543,6.19270359 115.06543,7.140625 L115.06543,7.80078125 L110.672852,7.80078125 L110.653809,7.83251953 C110.653809,8.52230163 110.806151,9.08194772 111.11084,9.51147461 C111.415529,9.9410015 111.881019,10.1557617 112.507324,10.1557617 C112.930503,10.1557617 113.301838,10.0954596 113.621338,9.97485352 C113.940838,9.85424744 114.214843,9.6881521 114.443359,9.4765625 L114.932129,10.2890625 C114.686685,10.5260429 114.362958,10.725992 113.960938,10.888916 C113.558917,11.05184 113.074384,11.1333008 112.507324,11.1333008 Z M112.310547,4.98876953 C111.874672,4.98876953 111.513917,5.15698074 111.228271,5.4934082 C110.942626,5.82983567 110.768067,6.26041404 110.70459,6.78515625 L110.717285,6.81689453 L113.814941,6.81689453 L113.814941,6.71533203 C113.814941,6.21598058 113.692221,5.80338705 113.446777,5.47753906 C113.201333,5.15169108 112.822594,4.98876953 112.310547,4.98876953 Z" id="Leicester-square-Copy" fill="#94A0B4"></path>
                    <g id="icon-location">
                        <use id="Rectangle-3" stroke="#94A0B4" mask="url(#mask-4)"  xlink:href="#path-3"></use>
                        <g id="Page-1-Copy">
                            <use stroke="#FFFFFF" stroke-width="3" fill="#FFFFFF" fill-rule="evenodd" xlink:href="#path-5"></use>
                            <use stroke="#94A0B4" mask="url(#mask-6)"  xlink:href="#path-5"></use>
                        </g>
                        <ellipse id="Oval-3" stroke="#94A0B4" cx="5.97037037" cy="3.34512023" rx="0.859259259" ry="0.840169731"></ellipse>
                    </g>
                </g>
                <path d="M342.418889,39.3144531 C342.418889,40.1523479 342.21837,40.8282038 341.817326,41.342041 C341.416283,41.8558782 340.863066,42.112793 340.157658,42.112793 C339.799584,42.112793 339.485378,42.0528164 339.215031,41.9328613 C338.944685,41.8129063 338.714626,41.6329765 338.524846,41.3930664 L338.524846,44.234375 L337.46674,44.234375 L337.46674,36.1884766 L338.277776,36.1884766 L338.44428,36.9404297 C338.634059,36.6611314 338.870385,36.4480802 339.153264,36.3012695 C339.436143,36.1544589 339.765567,36.0810547 340.141545,36.0810547 C340.861275,36.0810547 341.420759,36.366615 341.820012,36.9377441 C342.219265,37.5088733 342.418889,38.2635044 342.418889,39.2016602 L342.418889,39.3144531 Z M341.360783,39.2016602 C341.360783,38.5428027 341.230983,38.0012228 340.971379,37.5769043 C340.711775,37.1525858 340.329536,36.9404297 339.824651,36.9404297 C339.520287,36.9404297 339.260687,37.009358 339.045842,37.1472168 C338.830997,37.2850756 338.657334,37.4739571 338.524846,37.7138672 L338.524846,40.5229492 C338.657334,40.7628593 338.830997,40.9499505 339.045842,41.0842285 C339.260687,41.2185065 339.523868,41.2856445 339.835393,41.2856445 C340.336697,41.2856445 340.716251,41.102134 340.974065,40.7351074 C341.231878,40.3680808 341.360783,39.8945342 341.360783,39.3144531 L341.360783,39.2016602 Z M346.124944,42.112793 C345.290629,42.112793 344.639838,41.8460313 344.172551,41.3125 C343.705263,40.7789687 343.471623,40.0771528 343.471623,39.2070312 L343.471623,38.9707031 C343.471623,38.1363891 343.712425,37.4462104 344.194035,36.9001465 C344.675646,36.3540826 345.263775,36.0810547 345.95844,36.0810547 C346.735462,36.0810547 347.31822,36.3227515 347.706731,36.8061523 C348.095242,37.2895532 348.289494,37.9322877 348.289494,38.734375 L348.289494,39.2929688 L344.572697,39.2929688 L344.556584,39.3198242 C344.556584,39.903486 344.685489,40.3770327 344.943303,40.7404785 C345.201117,41.1039243 345.594993,41.2856445 346.124944,41.2856445 C346.483018,41.2856445 346.797224,41.2346197 347.067571,41.1325684 C347.337917,41.0305171 347.569767,40.8899749 347.763127,40.7109375 L348.176701,41.3984375 C347.969018,41.5989593 347.695095,41.7681471 347.354924,41.9060059 C347.014753,42.0438646 346.604764,42.112793 346.124944,42.112793 Z M345.95844,36.9135742 C345.589623,36.9135742 345.284369,37.0559068 345.042668,37.3405762 C344.800968,37.6252456 344.653264,37.9895811 344.599553,38.4335938 L344.610295,38.4604492 L347.231389,38.4604492 L347.231389,38.3745117 C347.231389,37.9519836 347.127549,37.602866 346.919865,37.3271484 C346.712182,37.0514309 346.39171,36.9135742 345.95844,36.9135742 Z M352.226506,37.1230469 L351.684026,37.0908203 C351.404727,37.0908203 351.169297,37.1570631 350.977727,37.2895508 C350.786157,37.4220384 350.638453,37.6082345 350.534612,37.8481445 L350.534612,42 L349.476506,42 L349.476506,36.1884766 L350.421819,36.1884766 L350.523869,37.0371094 C350.688584,36.7363266 350.891788,36.5017912 351.133488,36.3334961 C351.375189,36.165201 351.653588,36.0810547 351.968694,36.0810547 C352.04747,36.0810547 352.122665,36.0873209 352.19428,36.0998535 C352.265894,36.1123861 352.324976,36.1258137 352.371526,36.1401367 L352.226506,37.1230469 Z M357.54926,39.8837891 L357.683537,40.6303711 L357.715764,40.6303711 L357.855412,39.8837891 L359.015569,36.1884766 L359.864201,36.1884766 L361.029729,39.8837891 L361.180119,40.7163086 L361.212346,40.7163086 L361.384221,39.8837891 L362.243596,36.1884766 L363.350041,36.1884766 L361.663518,42 L360.809514,42 L359.6601,38.4604492 L359.439885,37.5366211 L359.407658,37.5366211 L359.203557,38.4604492 L358.075627,42 L357.221623,42 L355.5351,36.1884766 L356.636174,36.1884766 L357.54926,39.8837891 Z M366.792912,42.112793 C365.958598,42.112793 365.307807,41.8460313 364.84052,41.3125 C364.373232,40.7789687 364.139592,40.0771528 364.139592,39.2070312 L364.139592,38.9707031 C364.139592,38.1363891 364.380394,37.4462104 364.862004,36.9001465 C365.343615,36.3540826 365.931743,36.0810547 366.626408,36.0810547 C367.403431,36.0810547 367.986188,36.3227515 368.374699,36.8061523 C368.76321,37.2895532 368.957463,37.9322877 368.957463,38.734375 L368.957463,39.2929688 L365.240666,39.2929688 L365.224553,39.3198242 C365.224553,39.903486 365.353458,40.3770327 365.611272,40.7404785 C365.869085,41.1039243 366.262962,41.2856445 366.792912,41.2856445 C367.150987,41.2856445 367.465193,41.2346197 367.735539,41.1325684 C368.005886,41.0305171 368.237736,40.8899749 368.431096,40.7109375 L368.84467,41.3984375 C368.636987,41.5989593 368.363064,41.7681471 368.022893,41.9060059 C367.682722,42.0438646 367.272732,42.112793 366.792912,42.112793 Z M366.626408,36.9135742 C366.257591,36.9135742 365.952337,37.0559068 365.710637,37.3405762 C365.468936,37.6252456 365.321233,37.9895811 365.267522,38.4335938 L365.278264,38.4604492 L367.899358,38.4604492 L367.899358,38.3745117 C367.899358,37.9519836 367.795518,37.602866 367.587834,37.3271484 C367.380151,37.0514309 367.059679,36.9135742 366.626408,36.9135742 Z M372.550725,42.112793 C371.716411,42.112793 371.06562,41.8460313 370.598332,41.3125 C370.131045,40.7789687 369.897405,40.0771528 369.897405,39.2070312 L369.897405,38.9707031 C369.897405,38.1363891 370.138206,37.4462104 370.619817,36.9001465 C371.101427,36.3540826 371.689556,36.0810547 372.384221,36.0810547 C373.161243,36.0810547 373.744001,36.3227515 374.132512,36.8061523 C374.521023,37.2895532 374.715276,37.9322877 374.715276,38.734375 L374.715276,39.2929688 L370.998479,39.2929688 L370.982365,39.3198242 C370.982365,39.903486 371.11127,40.3770327 371.369084,40.7404785 C371.626898,41.1039243 372.020774,41.2856445 372.550725,41.2856445 C372.9088,41.2856445 373.223005,41.2346197 373.493352,41.1325684 C373.763698,41.0305171 373.995548,40.8899749 374.188908,40.7109375 L374.602483,41.3984375 C374.394799,41.5989593 374.120876,41.7681471 373.780705,41.9060059 C373.440534,42.0438646 373.030545,42.112793 372.550725,42.112793 Z M372.384221,36.9135742 C372.015404,36.9135742 371.71015,37.0559068 371.468449,37.3405762 C371.226749,37.6252456 371.079045,37.9895811 371.025334,38.4335938 L371.036076,38.4604492 L373.65717,38.4604492 L373.65717,38.3745117 C373.65717,37.9519836 373.55333,37.602866 373.345647,37.3271484 C373.137963,37.0514309 372.817491,36.9135742 372.384221,36.9135742 Z M377.508244,39.3198242 L376.965764,39.3198242 L376.965764,42 L375.907658,42 L375.907658,33.6210938 L376.965764,33.6210938 L376.965764,38.4765625 L377.497502,38.4765625 L379.243108,36.1884766 L380.510686,36.1884766 L378.399846,38.8686523 L380.693303,42 L379.441838,42 L377.508244,39.3198242 Z" id="per-week-copy-3" fill="#12A0DD"></path>
                <path d="M327.617011,24.9609375 C327.617011,24.316403 327.389637,23.7667666 326.934882,23.3120117 C326.480127,22.8572568 325.726391,22.4508481 324.673651,22.0927734 C323.22703,21.6559223 322.134918,21.0722693 321.397284,20.3417969 C320.65965,19.6113245 320.290839,18.6373759 320.290839,17.4199219 C320.290839,16.2382753 320.631005,15.2750688 321.311347,14.5302734 C321.991689,13.785478 322.92625,13.3378914 324.115058,13.1875 L324.115058,10.8134766 L325.812323,10.8134766 L325.812323,13.1982422 C327.008293,13.3557951 327.937483,13.84635 328.599921,14.6699219 C329.262359,15.4934937 329.593573,16.5963473 329.593573,17.9785156 L327.488105,17.9785156 C327.488105,17.0690059 327.262521,16.331383 326.811347,15.765625 C326.360173,15.199867 325.737132,14.9169922 324.942206,14.9169922 C324.09715,14.9169922 323.463367,15.1372048 323.040839,15.5776367 C322.618311,16.0180686 322.40705,16.6214154 322.40705,17.3876953 C322.40705,18.0823602 322.625472,18.6445291 323.062323,19.0742188 C323.499174,19.5039084 324.283346,19.9121074 325.414862,20.2988281 C326.875807,20.7714867 327.960757,21.3605108 328.669745,22.065918 C329.378733,22.7713251 329.733222,23.7291606 329.733222,24.9394531 C329.733222,26.1712301 329.36441,27.1505498 328.626776,27.8774414 C327.889143,28.6043331 326.875806,29.0358066 325.586737,29.171875 L325.586737,31.234375 L323.900214,31.234375 L323.900214,29.1826172 C322.668437,29.0537103 321.658681,28.6043333 320.870917,27.8344727 C320.083153,27.064612 319.703599,25.9349033 319.732245,24.4453125 L319.75373,24.3916016 L321.794745,24.3916016 C321.794745,25.4944717 322.074039,26.2804339 322.632636,26.7495117 C323.191232,27.2185896 323.871564,27.453125 324.673651,27.453125 C325.597484,27.453125 326.318994,27.2329124 326.838202,26.7924805 C327.357411,26.3520486 327.617011,25.7415404 327.617011,24.9609375 Z M338.767401,29 L336.640448,29 L336.640448,15.3144531 L333.235175,15.3466797 L333.235175,13.7138672 L338.767401,13.1337891 L338.767401,29 Z M354.698066,23.4785156 C354.698066,25.2474047 354.248689,26.6474558 353.349921,27.6787109 C352.451153,28.7099661 351.242669,29.2255859 349.724433,29.2255859 C348.213357,29.2255859 347.004873,28.7099661 346.098944,27.6787109 C345.193015,26.6474558 344.740058,25.2474047 344.740058,23.4785156 L344.740058,18.8808594 C344.740058,17.1262933 345.189435,15.7298229 346.088202,14.6914062 C346.98697,13.6529896 348.191873,13.1337891 349.702948,13.1337891 C351.221185,13.1337891 352.43325,13.6529896 353.339179,14.6914062 C354.245108,15.7298229 354.698066,17.1262933 354.698066,18.8808594 L354.698066,23.4785156 Z M352.581855,18.4404297 C352.581855,17.3160751 352.331206,16.4280632 351.829901,15.7763672 C351.328597,15.1246712 350.61962,14.7988281 349.702948,14.7988281 C348.793439,14.7988281 348.091623,15.1246712 347.59748,15.7763672 C347.103336,16.4280632 346.856269,17.3160751 346.856269,18.4404297 L346.856269,23.9082031 C346.856269,25.0325577 347.108708,25.9241504 347.613593,26.5830078 C348.118478,27.2418653 348.822084,27.5712891 349.724433,27.5712891 C350.641104,27.5712891 351.346501,27.2436556 351.840644,26.5883789 C352.334787,25.9331022 352.581855,25.0397192 352.581855,23.9082031 L352.581855,18.4404297 Z M367.083808,23.4785156 C367.083808,25.2474047 366.634431,26.6474558 365.735663,27.6787109 C364.836896,28.7099661 363.628412,29.2255859 362.110175,29.2255859 C360.5991,29.2255859 359.390616,28.7099661 358.484687,27.6787109 C357.578758,26.6474558 357.1258,25.2474047 357.1258,23.4785156 L357.1258,18.8808594 C357.1258,17.1262933 357.575177,15.7298229 358.473944,14.6914062 C359.372712,13.6529896 360.577615,13.1337891 362.088691,13.1337891 C363.606927,13.1337891 364.818992,13.6529896 365.724921,14.6914062 C366.63085,15.7298229 367.083808,17.1262933 367.083808,18.8808594 L367.083808,23.4785156 Z M364.967597,18.4404297 C364.967597,17.3160751 364.716948,16.4280632 364.215644,15.7763672 C363.714339,15.1246712 363.005362,14.7988281 362.088691,14.7988281 C361.179181,14.7988281 360.477365,15.1246712 359.983222,15.7763672 C359.489079,16.4280632 359.242011,17.3160751 359.242011,18.4404297 L359.242011,23.9082031 C359.242011,25.0325577 359.49445,25.9241504 359.999335,26.5830078 C360.50422,27.2418653 361.207827,27.5712891 362.110175,27.5712891 C363.026846,27.5712891 363.732243,27.2436556 364.226386,26.5883789 C364.720529,25.9331022 364.967597,25.0397192 364.967597,23.9082031 L364.967597,18.4404297 Z M379.46955,23.4785156 C379.46955,25.2474047 379.020173,26.6474558 378.121405,27.6787109 C377.222638,28.7099661 376.014154,29.2255859 374.495917,29.2255859 C372.984842,29.2255859 371.776358,28.7099661 370.870429,27.6787109 C369.9645,26.6474558 369.511542,25.2474047 369.511542,23.4785156 L369.511542,18.8808594 C369.511542,17.1262933 369.960919,15.7298229 370.859687,14.6914062 C371.758454,13.6529896 372.963357,13.1337891 374.474433,13.1337891 C375.992669,13.1337891 377.204734,13.6529896 378.110663,14.6914062 C379.016592,15.7298229 379.46955,17.1262933 379.46955,18.8808594 L379.46955,23.4785156 Z M377.353339,18.4404297 C377.353339,17.3160751 377.10269,16.4280632 376.601386,15.7763672 C376.100081,15.1246712 375.391104,14.7988281 374.474433,14.7988281 C373.564923,14.7988281 372.863107,15.1246712 372.368964,15.7763672 C371.874821,16.4280632 371.627753,17.3160751 371.627753,18.4404297 L371.627753,23.9082031 C371.627753,25.0325577 371.880192,25.9241504 372.385077,26.5830078 C372.889963,27.2418653 373.593569,27.5712891 374.495917,27.5712891 C375.412588,27.5712891 376.117985,27.2436556 376.612128,26.5883789 C377.106271,25.9331022 377.353339,25.0397192 377.353339,23.9082031 L377.353339,18.4404297 Z" id="$1000-copy-4" fill="#12A0DD"></path>
                <path d="M82.4111328,34 L82.4111328,21.9140625 L86.3540039,21.9140625 C87.615729,21.9140625 88.6035121,22.1866021 89.3173828,22.7316895 C90.0312536,23.2767768 90.3881836,24.0943956 90.3881836,25.1845703 C90.3881836,25.7047552 90.2277034,26.1709778 89.9067383,26.583252 C89.5857731,26.9955261 89.1596706,27.3095692 88.628418,27.5253906 C89.4197631,27.6360683 90.0464658,27.9791638 90.5085449,28.5546875 C90.9706241,29.1302112 91.2016602,29.8081016 91.2016602,30.5883789 C91.2016602,31.6951553 90.8419632,32.540443 90.1225586,33.1242676 C89.403154,33.7080921 88.4292054,34 87.2006836,34 L82.4111328,34 Z M84.0463867,28.3305664 L84.0463867,32.7216797 L87.2006836,32.7216797 C87.9477576,32.7216797 88.5274231,32.5376809 88.9396973,32.1696777 C89.3519715,31.8016746 89.5581055,31.2801141 89.5581055,30.6049805 C89.5581055,29.9353808 89.3478211,29.3958354 88.9272461,28.9863281 C88.5066711,28.5768209 87.9394567,28.3582358 87.2255859,28.3305664 L84.0463867,28.3305664 Z M84.0463867,27.0522461 L86.6943359,27.0522461 C87.3030629,27.0522461 87.7983379,26.8848487 88.1801758,26.5500488 C88.5620136,26.215249 88.7529297,25.7490264 88.7529297,25.1513672 C88.7529297,24.4983691 88.5467957,24.0100114 88.1345215,23.6862793 C87.7222473,23.3625472 87.1287474,23.2006836 86.3540039,23.2006836 L84.0463867,23.2006836 L84.0463867,27.0522461 Z M94.7626953,34 L93.1274414,34 L93.1274414,25.0185547 L94.7626953,25.0185547 L94.7626953,34 Z M94.7626953,22.7192383 L93.1274414,22.7192383 L93.1274414,21.0507812 L94.7626953,21.0507812 L94.7626953,22.7192383 Z M99.0458984,34 L97.4106445,34 L97.4106445,21.0507812 L99.0458984,21.0507812 L99.0458984,34 Z M103.329102,34 L101.693848,34 L101.693848,21.0507812 L103.329102,21.0507812 L103.329102,34 Z M113.51416,29.8496094 C113.51416,31.1445377 113.202884,32.1890423 112.580322,32.9831543 C111.957761,33.7772663 111.101405,34.1743164 110.01123,34.1743164 C109.413571,34.1743164 108.894778,34.0567232 108.454834,33.8215332 C108.01489,33.5863432 107.651043,33.2390973 107.363281,32.7797852 L107.097656,34 L105.844238,34 L105.844238,21.0507812 L107.479492,21.0507812 L107.479492,26.0810547 C107.76172,25.6826152 108.111733,25.3782563 108.529541,25.1679688 C108.947349,24.9576812 109.435707,24.8525391 109.994629,24.8525391 C111.101405,24.8525391 111.964678,25.295243 112.584473,26.1806641 C113.204267,27.0660852 113.51416,28.2309498 113.51416,29.675293 L113.51416,29.8496094 Z M111.878906,29.675293 C111.878906,28.6459909 111.689374,27.806237 111.310303,27.1560059 C110.931232,26.5057747 110.354333,26.1806641 109.57959,26.1806641 C109.076007,26.1806641 108.651288,26.3037911 108.30542,26.5500488 C107.959552,26.7963066 107.684246,27.126951 107.479492,27.5419922 L107.479492,31.4350586 C107.68978,31.8777691 107.965086,32.2236316 108.30542,32.4726562 C108.645754,32.7216809 109.076007,32.8461914 109.596191,32.8461914 C110.365401,32.8461914 110.938149,32.5722684 111.314453,32.0244141 C111.690757,31.4765598 111.878906,30.7516321 111.878906,29.8496094 L111.878906,29.675293 Z M115.124512,29.4262695 C115.124512,28.0981379 115.484209,27.0038292 116.203613,26.1433105 C116.923018,25.2827919 117.899733,24.8525391 119.133789,24.8525391 C120.378912,24.8525391 121.362545,25.2814085 122.084717,26.1391602 C122.806888,26.9969118 123.167969,28.092604 123.167969,29.4262695 L123.167969,29.6088867 C123.167969,30.9480861 122.808272,32.0437783 122.088867,32.8959961 C121.369463,33.7482139 120.38998,34.1743164 119.150391,34.1743164 C117.910801,34.1743164 116.929935,33.7468304 116.207764,32.8918457 C115.485592,32.036861 115.124512,30.9425522 115.124512,29.6088867 L115.124512,29.4262695 Z M116.759766,29.6088867 C116.759766,30.5607144 116.960366,31.3465138 117.361572,31.9663086 C117.762779,32.5861034 118.359046,32.8959961 119.150391,32.8959961 C119.930668,32.8959961 120.522784,32.5861034 120.926758,31.9663086 C121.330731,31.3465138 121.532715,30.5607144 121.532715,29.6088867 L121.532715,29.4262695 C121.532715,28.4855096 121.329348,27.7024771 120.922607,27.0771484 C120.515867,26.4518198 119.9196,26.1391602 119.133789,26.1391602 C118.353512,26.1391602 117.762779,26.4518198 117.361572,27.0771484 C116.960366,27.7024771 116.759766,28.4855096 116.759766,29.4262695 L116.759766,29.6088867 Z M130.688477,34 C130.633138,33.7288398 130.590251,33.489503 130.559814,33.2819824 C130.529378,33.0744619 130.511393,32.8655609 130.505859,32.6552734 C130.201496,33.0869162 129.804446,33.4479966 129.314697,33.7385254 C128.824949,34.0290542 128.297854,34.1743164 127.733398,34.1743164 C126.798172,34.1743164 126.085696,33.9349796 125.595947,33.4562988 C125.106199,32.977618 124.861328,32.3177125 124.861328,31.4765625 C124.861328,30.6188108 125.208574,29.9478377 125.903076,29.463623 C126.597578,28.9794084 127.539708,28.7373047 128.729492,28.7373047 L130.505859,28.7373047 L130.505859,27.8491211 C130.505859,27.3234023 130.345379,26.906984 130.024414,26.5998535 C129.703449,26.2927231 129.249677,26.1391602 128.663086,26.1391602 C128.131833,26.1391602 127.702964,26.2719713 127.376465,26.5375977 C127.049966,26.803224 126.886719,27.1214174 126.886719,27.4921875 L125.334473,27.5087891 L125.317871,27.4589844 C125.279134,26.8059863 125.584876,26.208336 126.235107,25.6660156 C126.885339,25.1236952 127.725093,24.8525391 128.754395,24.8525391 C129.772629,24.8525391 130.591631,25.1112442 131.211426,25.6286621 C131.831221,26.1460801 132.141113,26.8917595 132.141113,27.8657227 L132.141113,32.1904297 C132.141113,32.5113948 132.157715,32.8212876 132.190918,33.1201172 C132.224121,33.4189468 132.284993,33.7122381 132.373535,34 L130.688477,34 Z M127.974121,32.8046875 C128.566246,32.8046875 129.100258,32.652508 129.576172,32.3481445 C130.052086,32.043781 130.361978,31.6951517 130.505859,31.3022461 L130.505859,29.8413086 L128.671387,29.8413086 C128.012855,29.8413086 127.48576,30.0073226 127.090088,30.3393555 C126.694415,30.6713884 126.496582,31.0615212 126.496582,31.5097656 C126.496582,31.9082051 126.621093,32.2236317 126.870117,32.4560547 C127.119142,32.6884777 127.487139,32.8046875 127.974121,32.8046875 Z M138.765137,26.4628906 L137.926758,26.4130859 C137.495115,26.4130859 137.131268,26.5154612 136.835205,26.7202148 C136.539142,26.9249685 136.310873,27.212726 136.150391,27.5834961 L136.150391,34 L134.515137,34 L134.515137,25.0185547 L135.976074,25.0185547 L136.133789,26.3300781 C136.388348,25.8652321 136.702391,25.5027682 137.075928,25.2426758 C137.449465,24.9825833 137.879718,24.8525391 138.366699,24.8525391 C138.488445,24.8525391 138.604654,24.8622232 138.715332,24.8815918 C138.82601,24.9009604 138.917317,24.9217121 138.989258,24.9438477 L138.765137,26.4628906 Z M139.935547,29.675293 C139.935547,28.2309498 140.244056,27.0660852 140.861084,26.1806641 C141.478112,25.295243 142.342768,24.8525391 143.455078,24.8525391 C143.980797,24.8525391 144.447019,24.9493805 144.85376,25.1430664 C145.2605,25.3367523 145.607746,25.618976 145.895508,25.9897461 L145.895508,21.0507812 L147.530762,21.0507812 L147.530762,34 L146.277344,34 L146.02832,32.862793 C145.735025,33.2944358 145.372561,33.6209299 144.940918,33.8422852 C144.509275,34.0636404 144.008466,34.1743164 143.438477,34.1743164 C142.342768,34.1743164 141.485029,33.7772663 140.865234,32.9831543 C140.24544,32.1890423 139.935547,31.1445377 139.935547,29.8496094 L139.935547,29.675293 Z M141.570801,29.8496094 C141.570801,30.757166 141.756183,31.4834771 142.126953,32.0285645 C142.497723,32.5736518 143.073238,32.8461914 143.853516,32.8461914 C144.340497,32.8461914 144.749998,32.7355154 145.082031,32.5141602 C145.414064,32.2928049 145.68522,31.9829121 145.895508,31.5844727 L145.895508,27.3925781 C145.68522,27.021808 145.412681,26.7271333 145.077881,26.5085449 C144.743081,26.2899566 144.340497,26.1806641 143.870117,26.1806641 C143.084306,26.1806641 142.504641,26.5043913 142.131104,27.1518555 C141.757566,27.7993196 141.570801,28.6404571 141.570801,29.675293 L141.570801,29.8496094 Z M155.657227,25.0185547 L155.773438,26.3549805 C156.072267,25.8790666 156.447182,25.5096856 156.898193,25.2468262 C157.349205,24.9839668 157.862465,24.8525391 158.437988,24.8525391 C159.406418,24.8525391 160.156247,25.1361463 160.6875,25.7033691 C161.218753,26.270592 161.484375,27.1463157 161.484375,28.3305664 L161.484375,34 L159.849121,34 L159.849121,28.3637695 C159.849121,27.5724244 159.692791,27.0107438 159.380127,26.6787109 C159.067463,26.346678 158.590172,26.1806641 157.948242,26.1806641 C157.444659,26.1806641 157.017173,26.2816559 156.665771,26.4836426 C156.31437,26.6856293 156.036297,26.9692365 155.831543,27.3344727 L155.831543,34 L154.196289,34 L154.196289,25.0185547 L155.657227,25.0185547 Z M169.378418,34 C169.323079,33.7288398 169.280192,33.489503 169.249756,33.2819824 C169.21932,33.0744619 169.201335,32.8655609 169.195801,32.6552734 C168.891437,33.0869162 168.494387,33.4479966 168.004639,33.7385254 C167.51489,34.0290542 166.987796,34.1743164 166.42334,34.1743164 C165.488114,34.1743164 164.775637,33.9349796 164.285889,33.4562988 C163.79614,32.977618 163.55127,32.3177125 163.55127,31.4765625 C163.55127,30.6188108 163.898515,29.9478377 164.593018,29.463623 C165.28752,28.9794084 166.229649,28.7373047 167.419434,28.7373047 L169.195801,28.7373047 L169.195801,27.8491211 C169.195801,27.3234023 169.035321,26.906984 168.714355,26.5998535 C168.39339,26.2927231 167.939619,26.1391602 167.353027,26.1391602 C166.821775,26.1391602 166.392905,26.2719713 166.066406,26.5375977 C165.739907,26.803224 165.57666,27.1214174 165.57666,27.4921875 L164.024414,27.5087891 L164.007812,27.4589844 C163.969075,26.8059863 164.274818,26.208336 164.925049,25.6660156 C165.57528,25.1236952 166.415034,24.8525391 167.444336,24.8525391 C168.46257,24.8525391 169.281572,25.1112442 169.901367,25.6286621 C170.521162,26.1460801 170.831055,26.8917595 170.831055,27.8657227 L170.831055,32.1904297 C170.831055,32.5113948 170.847656,32.8212876 170.880859,33.1201172 C170.914063,33.4189468 170.974934,33.7122381 171.063477,34 L169.378418,34 Z M166.664062,32.8046875 C167.256188,32.8046875 167.790199,32.652508 168.266113,32.3481445 C168.742027,32.043781 169.05192,31.6951517 169.195801,31.3022461 L169.195801,29.8413086 L167.361328,29.8413086 C166.702796,29.8413086 166.175702,30.0073226 165.780029,30.3393555 C165.384357,30.6713884 165.186523,31.0615212 165.186523,31.5097656 C165.186523,31.9082051 165.311034,32.2236317 165.560059,32.4560547 C165.809083,32.6884777 166.177081,32.8046875 166.664062,32.8046875 Z M174.666016,25.0185547 L174.782227,26.1972656 C175.075522,25.7711567 175.44767,25.4405122 175.898682,25.2053223 C176.349693,24.9701323 176.87402,24.8525391 177.47168,24.8525391 C178.069339,24.8525391 178.582599,24.990884 179.011475,25.2675781 C179.44035,25.5442722 179.762694,25.9593071 179.978516,26.5126953 C180.266277,25.9980443 180.641192,25.5926935 181.103271,25.2966309 C181.565351,25.0005682 182.106279,24.8525391 182.726074,24.8525391 C183.639165,24.8525391 184.361325,25.1665821 184.892578,25.7946777 C185.423831,26.4227733 185.689453,27.3676695 185.689453,28.6293945 L185.689453,34 L184.054199,34 L184.054199,28.612793 C184.054199,27.7273719 183.90202,27.1006692 183.597656,26.732666 C183.293293,26.3646629 182.839521,26.1806641 182.236328,26.1806641 C181.677406,26.1806641 181.225018,26.374347 180.87915,26.7617188 C180.533283,27.1490905 180.329916,27.6388317 180.269043,28.230957 L180.269043,34 L178.625488,34 L178.625488,28.612793 C178.625488,27.7716429 178.469158,27.1560078 178.156494,26.7658691 C177.84383,26.3757305 177.394209,26.1806641 176.807617,26.1806641 C176.309568,26.1806641 175.900067,26.2830393 175.579102,26.487793 C175.258136,26.6925466 175.011882,26.9803041 174.840332,27.3510742 L174.840332,34 L173.205078,34 L173.205078,25.0185547 L174.666016,25.0185547 Z M191.782227,34.1743164 C190.492832,34.1743164 189.487064,33.7620484 188.764893,32.9375 C188.042721,32.1129516 187.681641,31.028327 187.681641,29.6835938 L187.681641,29.3183594 C187.681641,28.0289649 188.053789,26.9623252 188.798096,26.1184082 C189.542403,25.2744912 190.451329,24.8525391 191.524902,24.8525391 C192.725755,24.8525391 193.62638,25.2260705 194.226807,25.9731445 C194.827233,26.7202186 195.127441,27.7135355 195.127441,28.953125 L195.127441,29.8164062 L189.383301,29.8164062 L189.358398,29.8579102 C189.358398,30.7599329 189.557615,31.4917778 189.956055,32.0534668 C190.354494,32.6151558 190.963212,32.8959961 191.782227,32.8959961 C192.335615,32.8959961 192.821206,32.8171395 193.239014,32.6594238 C193.656822,32.5017082 194.015135,32.2845066 194.313965,32.0078125 L194.953125,33.0703125 C194.63216,33.3802099 194.208824,33.6416819 193.683105,33.8547363 C193.157387,34.0677908 192.523767,34.1743164 191.782227,34.1743164 Z M191.524902,26.1391602 C190.954913,26.1391602 190.483156,26.3591287 190.109619,26.7990723 C189.736082,27.2390159 189.507813,27.8020799 189.424805,28.4882812 L189.441406,28.5297852 L193.492188,28.5297852 L193.492188,28.3969727 C193.492188,27.7439746 193.331707,27.2044292 193.010742,26.7783203 C192.689777,26.3522114 192.194502,26.1391602 191.524902,26.1391602 Z" id="Billboard-name-Copy" fill="#546074"></path>
                <rect id="Rectangle-6-Copy" fill="#6ECC12" x="17" y="15" width="53.0078125" height="53" rx="2"></rect>
                <path d="M57.0449929,47.86 C57.0449929,48.9314244 56.169352,49.8033333 55.0933416,49.8033333 L32.9746271,49.8033333 C31.8986167,49.8033333 31.0229759,48.9314244 31.0229759,47.86 L31.0229759,29.7222222 C31.0229759,28.6507978 31.8986167,27.7788889 32.9746271,27.7788889 L55.0933416,27.7788889 C56.169352,27.7788889 57.0449929,28.6507978 57.0449929,29.7222222 L57.0449929,47.86 Z M55.0933416,26.4833333 L44.6845348,26.4833333 L44.6845348,25.1877778 C44.6845348,24.8302044 44.3937388,24.54 44.0339844,24.54 C43.67423,24.54 43.3834339,24.8302044 43.3834339,25.1877778 L43.3834339,26.4833333 L32.9746271,26.4833333 C31.1810596,26.4833333 29.721875,27.9362989 29.721875,29.7222222 L29.721875,47.86 C29.721875,49.6459233 31.1810596,51.0988889 32.9746271,51.0988889 L43.3834339,51.0988889 L43.3834339,55.6333333 C43.3834339,55.9909067 43.67423,56.2811111 44.0339844,56.2811111 C45.9635169,56.2811111 47.2730749,57.3810378 47.9938848,58.2244444 L40.0168355,58.2244444 C40.4208273,57.7165867 41.0375491,57.1096189 41.8897702,56.7086444 C42.2150454,56.5557689 42.3536126,56.1696933 42.2007333,55.8464522 C42.0465528,55.5232111 41.6601259,55.3852344 41.3348507,55.5374622 C39.2121046,56.53504 38.2772637,58.5178878 38.2388812,58.6014511 C38.1458525,58.8022622 38.1627668,59.0354622 38.2818175,59.2220222 C38.4015188,59.4079344 38.6077433,59.52 38.829581,59.52 L49.2383878,59.52 C49.4660804,59.52 49.6768588,59.4021044 49.7939578,59.2084189 C49.912358,59.0153811 49.9208152,58.7744078 49.8160766,58.5735967 C49.7432149,58.43562 48.10643,55.3729267 44.6845348,55.0185922 L44.6845348,51.0988889 L55.0933416,51.0988889 C56.8869091,51.0988889 58.3460938,49.6459233 58.3460938,47.86 L58.3460938,29.7222222 C58.3460938,27.9362989 56.8869091,26.4833333 55.0933416,26.4833333 L55.0933416,26.4833333 Z" id="Page-1-Copy-2" fill="#FFFFFF"></path>
                <g id="btn-add-to-cart" transform="translate(307.000000, 53.000000)">
                    <use id="Rectangle-2-Copy-2" stroke="#12A0DD" mask="url(#mask-8)"  fill="#12A0DD" xlink:href="#path-7"></use>
                    <path d="M10.8374023,20 L10.8374023,10.7578125 L13.7446289,10.7578125 C14.9506896,10.7578125 15.9208134,11.1291467 16.6550293,11.8718262 C17.3892452,12.6145057 17.7563477,13.5740501 17.7563477,14.7504883 L17.7563477,16.0136719 C17.7563477,17.1943418 17.3892452,18.1538863 16.6550293,18.892334 C15.9208134,19.6307817 14.9506896,20 13.7446289,20 L10.8374023,20 Z M12.0878906,11.7416992 L12.0878906,19.0224609 L13.7446289,19.0224609 C14.5994509,19.0224609 15.2733537,18.741051 15.7663574,18.1782227 C16.2593612,17.6153943 16.5058594,16.8938846 16.5058594,16.0136719 L16.5058594,14.737793 C16.5058594,13.8660438 16.2593612,13.1487658 15.7663574,12.5859375 C15.2733537,12.0231092 14.5994509,11.7416992 13.7446289,11.7416992 L12.0878906,11.7416992 Z M24.6879883,15.715332 L20.8920898,15.715332 L20.8920898,19.0224609 L25.3354492,19.0224609 L25.3354492,20 L19.6416016,20 L19.6416016,10.7578125 L25.265625,10.7578125 L25.265625,11.7416992 L20.8920898,11.7416992 L20.8920898,14.7314453 L24.6879883,14.7314453 L24.6879883,15.715332 Z M33.2763672,11.7416992 L30.2294922,11.7416992 L30.2294922,20 L28.9790039,20 L28.9790039,11.7416992 L25.9702148,11.7416992 L25.9702148,10.7578125 L33.2763672,10.7578125 L33.2763672,11.7416992 Z M38.8623047,17.6196289 L35.3837891,17.6196289 L34.5585938,20 L33.2827148,20 L36.6152344,10.7578125 L37.6879883,10.7578125 L40.9506836,20 L39.6748047,20 L38.8623047,17.6196289 Z M35.7456055,16.5722656 L38.5068359,16.5722656 L37.1611328,12.6049805 L37.1230469,12.6049805 L35.7456055,16.5722656 Z M43.6928711,20 L42.4360352,20 L42.4360352,10.7578125 L43.6928711,10.7578125 L43.6928711,20 Z M47.2348633,19.0224609 L51.7416992,19.0224609 L51.7416992,20 L45.984375,20 L45.984375,10.7578125 L47.2348633,10.7578125 L47.2348633,19.0224609 Z M58.0576172,17.6704102 C58.0576172,17.2514627 57.9073908,16.9002293 57.6069336,16.6166992 C57.3064764,16.3331692 56.7775103,16.0919606 56.0200195,15.8930664 C55.0805617,15.6603178 54.3474147,15.3175478 53.8205566,14.8647461 C53.2936985,14.4119444 53.0302734,13.8427769 53.0302734,13.1572266 C53.0302734,12.4335901 53.3137992,11.8305688 53.8808594,11.3481445 C54.4479195,10.8657202 55.1842403,10.6245117 56.0898438,10.6245117 C57.0631559,10.6245117 57.8386202,10.900632 58.4162598,11.4528809 C58.9938994,12.0051297 59.2742514,12.6494104 59.2573242,13.3857422 L59.2382812,13.4238281 L58.0449219,13.4238281 C58.0449219,12.8990859 57.8618996,12.4653337 57.4958496,12.1225586 C57.1297996,11.7797834 56.6611357,11.6083984 56.0898438,11.6083984 C55.5058565,11.6083984 55.0583512,11.7501613 54.7473145,12.0336914 C54.4362777,12.3172215 54.2807617,12.6853819 54.2807617,13.1381836 C54.2807617,13.5402038 54.4510888,13.8755683 54.791748,14.1442871 C55.1324073,14.4130059 55.6857058,14.6489248 56.4516602,14.8520508 C57.3826544,15.0932629 58.0914689,15.4487281 58.578125,15.918457 C59.0647811,16.3881859 59.3081055,16.9679327 59.3081055,17.6577148 C59.3081055,18.4025102 59.0150583,19.0012998 58.4289551,19.4541016 C57.8428519,19.9069033 57.077967,20.1333008 56.1342773,20.1333008 C55.2413692,20.1333008 54.4532098,19.8836288 53.7697754,19.3842773 C53.086341,18.8849259 52.7552082,18.2163128 52.7763672,17.378418 L52.7890625,17.340332 L53.9824219,17.340332 C53.9824219,17.9200875 54.2024718,18.3675928 54.6425781,18.6828613 C55.0826845,18.9981298 55.5799126,19.1557617 56.1342773,19.1557617 C56.7267282,19.1557617 57.1953922,19.0224623 57.5402832,18.7558594 C57.8851743,18.4892565 58.0576172,18.1274437 58.0576172,17.6704102 Z" id="details" fill="#FFFFFF"></path>
                    <g id="Group-21" transform="translate(65.000000, 10.000000)" stroke="#FFFFFF">
                        <use id="Oval-3" mask="url(#mask-10)"  fill="#12A0DD" xlink:href="#path-9"></use>
                        <path d="M8.67954545,5.59676435 L3.42954545,5.59676435" id="Line" stroke-width="0.8" stroke-linecap="round"></path>
                        <path d="M6.05454545,8.03266178 L6.05454545,3.16086691" id="Line-Copy-8" stroke-width="0.8" stroke-linecap="round"></path>
                    </g>
                </g>
            </g>
        </g>
    </g>
</svg>