<?xml version="1.0" encoding="utf-8"?>
<!-- Generator: Adobe Illustrator 19.2.1, SVG Export Plug-In . SVG Version: 6.00 Build 0)  -->
<svg version="1.1" id="Слой_1" xmlns="http://www.w3.org/2000/svg" xmlns:xlink="http://www.w3.org/1999/xlink" x="0px" y="0px"
	 viewBox="0 0 2082.2 864.1" style="enable-background:new 0 0 2082.2 864.1;" xml:space="preserve">
<style type="text/css">
	.st0{fill:#3B5998;}
</style>
<path class="st0" d="M1063.3,405.4c-16.8,0-28.9,5.5-41.1,11.1v126.7c11.7,1.1,18.5,1.1,29.6,1.1c40.2,0,45.8-18.4,45.8-44.2v-60.5
	C1097.5,420.7,1091.2,405.4,1063.3,405.4L1063.3,405.4z M796,398.5c-27.9,0-34.3,15.3-34.3,34.3v10.7h68.6v-10.7
	C830.3,413.8,823.9,398.5,796,398.5z M278.2,530.4c0,15,7.1,22.8,22.7,22.8c16.8,0,26.7-5.5,39-11.1v-30.1h-36.7
	C285.9,512.1,278.2,515.3,278.2,530.4L278.2,530.4z M1323.3,405.4c-28,0-37.7,15.3-37.7,34.3v69.4c0,19.1,9.7,34.4,37.7,34.4
	c27.9,0,37.7-15.3,37.7-34.4v-69.4C1360.9,420.7,1351.1,405.4,1323.3,405.4z M141.2,608.2H58.9v-199H17.9v-68.6H59v-41.2
	c0-55.9,23.2-89.2,89.1-89.2h54.9v68.6h-34.3c-25.7,0-27.3,9.6-27.3,27.5l-0.1,34.3h62.1l-7.3,68.6h-54.9L141.2,608.2L141.2,608.2z
	 M422.1,608.7h-68.5l-3-17.3c-31.3,17.3-59.2,20.1-77.6,20.1c-50.3,0-77-33.6-77-80c0-54.8,31.2-74.3,87-74.3h56.8v-11.8
	c0-28-3.2-36.2-46.2-36.2h-70.3l6.9-68.6h76.8c94.3,0,115,29.8,115,105.3L422.1,608.7L422.1,608.7z M655.2,414.2
	c-42.6-7.3-54.9-8.9-75.4-8.9c-36.9,0-48,8.1-48,39.4v59.2c0,31.3,11.1,39.5,48,39.5c20.5,0,32.8-1.6,75.4-9v66.9
	c-37.3,8.4-61.7,10.6-82.2,10.6c-88.3,0-123.4-46.4-123.4-113.5v-48c0-67.1,35.1-113.6,123.4-113.6c20.6,0,44.9,2.2,82.2,10.6V414.2
	L655.2,414.2z M912.5,498.4H761.7v5.5c0,31.3,11.1,39.5,48,39.5c33.1,0,53.3-1.6,95.9-9v66.9c-41.1,8.4-62.4,10.6-102.7,10.6
	c-88.3,0-123.4-46.4-123.4-113.5v-54.9c0-58.7,26-106.7,116.5-106.7s116.5,47.5,116.5,106.7V498.4z M1179.7,499.7
	c0,64.8-18.5,112.1-130.7,112.1c-40.5,0-64.3-3.6-109-10.4V230.8l82.2-13.7v129.6c17.8-6.6,40.8-10,61.7-10
	c82.2,0,95.9,36.9,95.9,96.1L1179.7,499.7L1179.7,499.7z M1443.2,501.1c0,55.9-23.1,110.1-119.7,110.1
	c-96.6,0-120.1-54.2-120.1-110.1v-54c0-55.9,23.5-110.2,120.1-110.2c96.6,0,119.7,54.2,119.7,110.2V501.1L1443.2,501.1z
	 M1706.5,501.1c0,55.9-23.1,110.1-119.7,110.1c-96.6,0-120.1-54.2-120.1-110.1v-54c0-55.9,23.5-110.2,120.1-110.2
	c96.6,0,119.7,54.2,119.7,110.2V501.1L1706.5,501.1z M1976.7,608.2h-89.1l-75.3-125.8v125.8H1730V230.8l82.2-13.7v242.9l75.3-119.4
	h89.1L1894.4,471L1976.7,608.2z M1586.5,405.4c-27.9,0-37.6,15.3-37.6,34.3v69.4c0,19.1,9.7,34.4,37.6,34.4
	c27.9,0,37.8-15.3,37.8-34.4v-69.4C1624.3,420.7,1614.4,405.4,1586.5,405.4L1586.5,405.4z M2023.6,561.3c13.8,0,24.9,11.3,24.9,25.4
	c0,14.3-11,25.5-25,25.5c-13.9,0-25.1-11.2-25.1-25.5c0-14.1,11.2-25.4,25.1-25.4H2023.6z M2023.5,565.2c-11.2,0-20.3,9.6-20.3,21.4
	c0,12.1,9.1,21.5,20.4,21.5c11.3,0.1,20.3-9.5,20.3-21.4c0-11.9-9-21.6-20.3-21.6H2023.5z M2018.8,601.4h-4.5v-28.3
	c2.4-0.3,4.6-0.7,8-0.7c4.3,0,7.1,0.9,8.8,2.1c1.7,1.3,2.6,3.2,2.6,5.9c0,3.7-2.5,6-5.5,6.9v0.2c2.5,0.5,4.2,2.7,4.7,6.9
	c0.7,4.4,1.3,6.1,1.8,7h-4.7c-0.7-0.9-1.4-3.5-1.9-7.2c-0.7-3.6-2.5-5-6.1-5h-3.1L2018.8,601.4L2018.8,601.4z M2018.8,585.8h3.3
	c3.7,0,6.9-1.4,6.9-4.9c0-2.5-1.8-5-6.9-5c-1.5,0-2.5,0.1-3.3,0.2V585.8L2018.8,585.8z"/>
</svg>
