<?xml version="1.0" encoding="utf-8"?>
<!-- Generator: Adobe Illustrator 19.2.1, SVG Export Plug-In . SVG Version: 6.00 Build 0)  -->
<svg version="1.1" id="Слой_1" xmlns="http://www.w3.org/2000/svg" xmlns:xlink="http://www.w3.org/1999/xlink" x="0px" y="0px"
	 viewBox="0 0 375 169" style="enable-background:new 0 0 375 169;" xml:space="preserve">
<style type="text/css">
	.st0{fill:#767677;}
	.st1{fill:#F1EFEF;}
	.st2{fill:#537CBD;}
	.st3{fill:#C5C3C4;}
	.st4{fill:#DD452F;}
	.st5{opacity:0.3;}
	.st6{fill:#010101;}
	.st7{fill:#E5E5E4;}
</style>
<title>integration-tile</title>
<path class="st0" d="M171.4,57.5h-18.6V63H166c-0.6,7.7-7.1,11-13.1,11c-8,0-14.5-6.4-14.5-14.4c0,0,0,0,0,0l0,0v-0.2
	c-0.1-8,6.2-14.6,14.2-14.7c0.1,0,0.2,0,0.3,0c3.7,0,7.3,1.4,9.9,4l3.9-4c-3.7-3.6-8.8-5.6-14-5.5c-11.2,0.1-20.2,9.2-20.1,20.4
	s9.2,20.2,20.4,20.1c10.8,0,18.8-7.4,18.8-18.4C171.8,60,171.7,58.7,171.4,57.5L171.4,57.5L171.4,57.5z"/>
<path class="st0" d="M186.6,53.5c-7.1-0.1-12.9,5.5-13.1,12.6c0,0,0,0,0,0l0,0v0.3c0,7.2,5.8,13.1,13,13.1c7.2,0,13.1-5.8,13.1-13
	C199.6,57.9,192.9,53.6,186.6,53.5L186.6,53.5L186.6,53.5z M186.7,58.6c3.7,0,7.3,3,7.3,7.9s-3.5,7.9-7.3,7.9
	c-4.1,0-7.4-3.3-7.4-7.9S182.5,58.6,186.7,58.6z"/>
<path class="st0" d="M215,53.5c-7.1-0.1-12.9,5.5-13.1,12.6c0,0,0,0,0,0l0,0v0.3c0,7.2,5.8,13.1,13,13.1c7.2,0,13.1-5.8,13.1-13
	C228,57.9,221.3,53.6,215,53.5L215,53.5L215,53.5z M215.1,58.6c3.7,0,7.3,3,7.3,7.9s-3.5,7.9-7.3,7.9c-4.1,0-7.4-3.3-7.4-7.9
	S210.9,58.6,215.1,58.6z"/>
<path class="st0" d="M242.9,53.5c-7,0-12.5,6.1-12.5,13c-0.1,7,5.4,12.7,12.4,13c2.7,0.1,5.4-1,7.1-3.2v2.6c0,4.5-2.7,7.2-6.8,7.2
	c-3,0-5.6-1.9-6.7-4.6l-5,2.1c1.8,3.8,5.3,7.7,11.7,7.7c7,0,12.3-4.4,12.3-13.6V54.3h-5.5v2.2C248.1,54.6,245.6,53.5,242.9,53.5
	L242.9,53.5L242.9,53.5z M243.4,58.6c3.4,0,6.9,2.9,6.9,7.9s-3.5,7.9-7,7.9c-3.7,0-7.2-3-7.2-7.8C236.2,61.6,239.8,58.6,243.4,58.6
	L243.4,58.6L243.4,58.6z"/>
<path class="st0" d="M279.6,53.5c-6.6,0-12.1,5.2-12.1,13c-0.2,6.9,5.2,12.8,12.2,13c0.2,0,0.4,0,0.6,0c4.3,0,8.4-2.1,10.9-5.7
	l-4.5-3c-1.3,2.2-3.7,3.6-6.3,3.6c-2.7,0.1-5.3-1.4-6.4-3.9l17.4-7.2l-0.9-2.1C288.7,56.6,284.4,53.6,279.6,53.5L279.6,53.5
	L279.6,53.5z M279.8,58.5c2-0.1,3.9,1,4.8,2.8L273,66.1C272.5,62.4,276.1,58.5,279.8,58.5L279.8,58.5L279.8,58.5z"/>
<path class="st0" d="M259.2,78.8h5.7V40.4h-5.7V78.8z"/>
<path class="st0" d="M142.1,104.7v22.1h-3.2v-22.1h-7v-3.1h17.3v3.1H142.1L142.1,104.7z"/>
<path class="st0" d="M155.8,109c2.1-0.1,4.1,0.6,5.6,1.9c1.4,1.4,2.2,3.3,2.1,5.2v10.6h-3.1v-2.4h-0.1c-1.1,1.9-3.2,3-5.3,3
	c-1.7,0.1-3.4-0.5-4.8-1.7c-1.2-1-1.9-2.6-1.9-4.2c-0.1-1.7,0.7-3.2,2-4.2c1.6-1.1,3.5-1.7,5.4-1.6c1.6-0.1,3.3,0.3,4.7,1.1V116
	c0-1.1-0.5-2.2-1.3-2.9c-0.9-0.8-2-1.2-3.1-1.2c-1.7,0-3.3,0.8-4.3,2.3l-2.9-1.8C150.4,110.1,153.1,108.8,155.8,109z M151.7,121.5
	c0,0.8,0.4,1.6,1.1,2.1c0.7,0.6,1.6,0.9,2.5,0.9c1.4,0,2.7-0.5,3.6-1.5c1-0.9,1.6-2.2,1.6-3.5c-1.2-0.9-2.7-1.3-4.2-1.2
	c-1.2,0-2.3,0.3-3.3,0.9C152.2,119.7,151.7,120.6,151.7,121.5L151.7,121.5L151.7,121.5z"/>
<path class="st0" d="M174.7,134.9c-0.9,0-1.8-0.1-2.7-0.4c-0.8-0.2-1.6-0.6-2.3-1c-0.7-0.4-1.3-1-1.8-1.6c-0.5-0.6-0.9-1.3-1.1-2
	l3.1-1.3c0.3,1,1,1.8,1.8,2.4c0.9,0.6,1.9,0.9,3,0.9c1.5,0.1,3-0.5,4.1-1.6c1-1.2,1.6-2.8,1.5-4.4v-1.6h-0.1
	c-0.6,0.9-1.5,1.7-2.5,2.2c-1,0.5-2.2,0.8-3.4,0.8c-2.2,0-4.3-1-5.8-2.6c-1.6-1.8-2.4-4.1-2.4-6.5c-0.1-2.4,0.8-4.7,2.4-6.5
	c1.4-1.7,3.6-2.7,5.8-2.7c1.2,0,2.3,0.3,3.4,0.8c1,0.5,1.9,1.2,2.5,2.2h0.1v-2.4h3.1V126c0.1,2.4-0.7,4.7-2.4,6.5
	C179.3,134.1,177,135,174.7,134.9z M174.8,124.4c1.5,0,2.9-0.6,3.9-1.7c2.1-2.6,2.1-6.4,0-9c-1-1.1-2.4-1.8-3.9-1.8
	c-1.5,0-2.9,0.6-3.9,1.8c-1.1,1.2-1.6,2.8-1.6,4.5c-0.1,1.6,0.5,3.2,1.6,4.5C171.8,123.7,173.3,124.3,174.8,124.4L174.8,124.4
	L174.8,124.4z"/>
<path class="st0" d="M198.8,126.7h-3.2v-25.2h3.2l8.7,15.3h0.1l8.7-15.3h3.2v25.1h-3.2v-14.9l0.1-4.2h-0.1l-7.9,13.8h-1.9l-7.9-13.8
	h-0.1l0.1,4.2L198.8,126.7z"/>
<path class="st0" d="M230.1,109c2.1-0.1,4.1,0.6,5.6,1.9c1.4,1.4,2.2,3.3,2.1,5.2v10.6h-3.1v-2.4h-0.1c-1.1,1.9-3.2,3-5.3,3
	c-1.7,0.1-3.4-0.5-4.8-1.7c-1.2-1-1.9-2.6-1.9-4.2c-0.1-1.7,0.7-3.3,2-4.3c1.6-1.1,3.5-1.7,5.4-1.6c1.6-0.1,3.3,0.3,4.7,1v-0.7
	c0-1.1-0.5-2.2-1.3-2.9c-0.9-0.8-2-1.2-3.1-1.2c-1.7,0-3.3,0.8-4.3,2.3l-2.8-1.8C224.7,110.1,227.4,108.8,230.1,109z M225.9,121.5
	c0,0.8,0.4,1.6,1.1,2.1c0.7,0.6,1.6,0.9,2.5,0.9c1.4,0,2.7-0.5,3.6-1.5c1-0.9,1.6-2.2,1.6-3.5c-1.2-0.9-2.7-1.3-4.2-1.2
	c-1.2,0-2.3,0.3-3.3,0.9C226.4,119.7,225.9,120.5,225.9,121.5L225.9,121.5L225.9,121.5z"/>
<path class="st0" d="M241.5,109.5h3.1v2.4h0.1c0.5-0.9,1.3-1.6,2.3-2.1c1-0.6,2.1-0.8,3.2-0.8c1.8-0.1,3.6,0.5,4.9,1.8
	c1.2,1.4,1.8,3.3,1.7,5.1v10.8h-3.2v-10.6c-0.1-2.8-1.5-4.2-4.2-4.2c-1.3,0-2.5,0.6-3.2,1.6c-0.9,1-1.3,2.4-1.3,3.7v9.5h-3.2V109.5
	L241.5,109.5L241.5,109.5z"/>
<path class="st0" d="M266.9,109c2.1-0.1,4.1,0.6,5.6,1.9c1.4,1.4,2.2,3.3,2.1,5.2v10.6h-3.1v-2.4h-0.1c-1.1,1.9-3.2,3-5.3,3
	c-1.7,0.1-3.4-0.5-4.8-1.7c-1.2-1-1.9-2.6-1.9-4.2c-0.1-1.7,0.7-3.2,2-4.2c1.6-1.1,3.5-1.7,5.4-1.6c1.6-0.1,3.3,0.3,4.7,1.1V116
	c0-1.1-0.5-2.2-1.3-2.9c-0.9-0.8-2-1.2-3.1-1.2c-1.7,0-3.3,0.8-4.3,2.3l-2.8-1.8C261.5,110.1,264.1,108.9,266.9,109z M262.7,121.5
	c0,0.8,0.4,1.6,1.1,2.1c0.7,0.6,1.6,0.9,2.5,0.9c1.4,0,2.7-0.5,3.6-1.5c1-0.9,1.6-2.2,1.6-3.5c-1.2-0.9-2.7-1.3-4.2-1.2
	c-1.2,0-2.3,0.3-3.3,1C263.2,119.7,262.8,120.5,262.7,121.5L262.7,121.5z"/>
<path class="st0" d="M285.7,134.9c-0.9,0-1.8-0.1-2.7-0.4c-0.8-0.2-1.6-0.6-2.3-1c-0.7-0.4-1.3-1-1.8-1.6c-0.5-0.6-0.9-1.3-1.1-2
	l3-1.3c0.3,1,1,1.8,1.8,2.4c0.9,0.6,1.9,0.9,3,0.9c1.5,0.1,3-0.5,4.1-1.6c1-1.2,1.6-2.8,1.5-4.4v-1.6h-0.1c-0.6,0.9-1.5,1.7-2.5,2.2
	c-1,0.5-2.2,0.8-3.4,0.8c-2.2,0-4.3-1-5.8-2.6c-1.6-1.8-2.4-4.1-2.4-6.6c-0.1-2.4,0.8-4.7,2.4-6.5c1.4-1.7,3.6-2.7,5.8-2.7
	c1.2,0,2.3,0.3,3.4,0.8c1,0.5,1.9,1.2,2.5,2.2h0.1v-2.4h3.1V126c0.1,2.4-0.7,4.7-2.4,6.5C290.3,134.1,288,135,285.7,134.9z
	 M285.8,124.4c1.5,0,2.9-0.6,3.9-1.7c2.1-2.6,2.1-6.4,0-9c-1-1.1-2.4-1.8-3.9-1.8c-1.5,0-2.9,0.6-3.9,1.8c-1.1,1.2-1.6,2.8-1.6,4.5
	c-0.1,1.6,0.5,3.2,1.6,4.5C282.9,123.7,284.3,124.3,285.8,124.4L285.8,124.4L285.8,124.4z"/>
<path class="st0" d="M305.9,127.3c-2.4,0.1-4.6-0.9-6.2-2.6c-1.7-1.8-2.5-4.1-2.5-6.6c-0.1-2.4,0.8-4.7,2.4-6.5
	c3.3-3.4,8.7-3.5,12.1-0.2c0,0,0,0,0.1,0.1c1.6,2,2.5,4.5,2.3,7v0.4h-13.6c0,1.5,0.6,3,1.7,4.1c2.2,2.1,5.6,2.1,7.7-0.1
	c0.4-0.4,0.8-0.9,1-1.4l2.9,1.4c-0.7,1.4-1.8,2.6-3.2,3.4C309.1,126.9,307.5,127.3,305.9,127.3z M300.7,116h9.9
	c-0.1-1.2-0.6-2.2-1.5-3c-1-0.8-2.2-1.2-3.5-1.2c-1.1,0-2.3,0.4-3.1,1.1C301.5,113.7,300.9,114.8,300.7,116L300.7,116z"/>
<path class="st0" d="M320.2,126.7h-3.2v-17.2h3.1v2.8h0.1c0.4-1,1.1-1.8,2-2.3c0.9-0.6,1.9-1,3-1c0.8,0,1.6,0.1,2.4,0.4l-1,3.1
	c-0.6-0.2-1.3-0.3-1.9-0.2c-1.2,0-2.4,0.5-3.2,1.5c-0.9,0.9-1.4,2.2-1.4,3.4L320.2,126.7L320.2,126.7L320.2,126.7z"/>
<path class="st1" d="M12.4,41.9h84.3c3.9,0,7,3.1,7,7v73.1c0,3.9-3.1,7-7,7H12.4c-3.9,0-7-3.1-7-7V48.8C5.4,45,8.6,41.9,12.4,41.9z"
	/>
<path class="st2" d="M5.4,59V48.9c0-3.9,3.1-7,7-7h84.3c3.9,0,7,3.1,7,7V59H5.4z"/>
<rect x="74.7" y="65.2" class="st3" width="21.8" height="56.5"/>
<rect x="12.6" y="88.9" class="st3" width="56.5" height="32.8"/>
<rect x="12.6" y="65.2" class="st3" width="56.5" height="18.8"/>
<path class="st4" d="M67.1,96.4h39.3c2.6,0,4.8-2.1,4.8-4.8l0,0l0,0V60.8c0-2.6-2.1-4.8-4.7-4.8c0,0,0,0,0,0H67.2L50.9,73
	c-1.6,1.8-1.6,4.5,0,6.3L67.1,96.4z"/>
<g class="st5">
	<path class="st6" d="M99.4,128.4c2.6-1.1,4.3-3.7,4.3-6.5V96.4H67.2L99.4,128.4z"/>
</g>
<circle class="st7" cx="16.3" cy="50.6" r="3.7"/>
<circle class="st7" cx="27.2" cy="50.6" r="3.7"/>
</svg>
