<?xml version="1.0" encoding="utf-8"?>
<!-- Generator: Adobe Illustrator 19.2.0, SVG Export Plug-In . SVG Version: 6.00 Build 0)  -->
<svg version="1.1" id="Layer_1" xmlns="http://www.w3.org/2000/svg" xmlns:xlink="http://www.w3.org/1999/xlink" x="0px" y="0px"
	 viewBox="0 0 843 202" style="enable-background:new 0 0 843 202;" xml:space="preserve">
<style type="text/css">
	.st0{fill:#3D454A;}
</style>
<path class="st0" d="M72.8,45.6c-16.2,0-25.5,7.2-30,12.3c-0.5-4.3-3.4-9.9-14.5-9.9H4.2v25.2h9.9c1.7,0,2.2,0.5,2.2,2.2v115.3H45
	v-43.3c0-1.2,0-2.3-0.1-3.2c4.5,4.1,13.1,9.8,26.5,9.8c28.1,0,47.7-22.3,47.7-54.2C119.2,67.4,100.5,45.6,72.8,45.6L72.8,45.6z
	 M66.9,128.9c-15.5,0-22.5-14.8-22.5-28.6C44.4,78.7,56.2,71,67.3,71C80.9,71,90,82.7,90,100.1C90,120,78.4,128.9,66.9,128.9
	L66.9,128.9z"/>
<path class="st0" d="M157.8,124.4V63.3c0-10.3-5-15.3-15.2-15.3h-25.7v25.2h9.9c1.7,0,2.2,0.5,2.2,2.2v60.9
	c0,10.5,4.8,15.3,15.1,15.3h25.7v-25H160C158.4,126.6,157.8,125.9,157.8,124.4L157.8,124.4z"/>
<path class="st0" d="M232.9,45.6c-16.2,0-25.5,7.2-30,12.3c-0.5-4.3-3.4-9.9-14.5-9.9h-24.1v25.2h9.9c1.7,0,2.2,0.5,2.2,2.2v115.3
	h28.8v-43.3c0-1.2,0-2.3-0.1-3.2c4.5,4.1,13.1,9.8,26.5,9.8c28.1,0,47.7-22.3,47.7-54.2C279.3,67.4,260.6,45.6,232.9,45.6
	L232.9,45.6z M227,128.9c-15.4,0-22.5-14.8-22.5-28.6c0-21.6,11.8-29.3,22.9-29.3c13.6,0,22.7,11.7,22.7,29.1
	C250.1,120,238.5,128.9,227,128.9z M333.4,45.6c-31,0-52.6,22.3-52.6,54.2c0,31.4,23.4,54.2,55.6,54.2c25.3,0,40.8-15,41.5-15.6
	l1.2-1.1l-12.5-20.8l-1.9,1.8c-0.1,0.1-11.5,10.6-26.5,10.6c-14.4,0-25-8.8-27.4-22.6H379l0.2-1.9c0-0.3,0.6-6.4,0.6-9.4
	C379.6,65.4,361,45.6,333.4,45.6L333.4,45.6z M311.7,84.8c3.1-10.2,10.9-15.9,21.7-15.9c8.7,0,15.3,6.6,16.5,15.9H311.7z
	 M484.1,124.4V24.3c0-10.3-5-15.3-15.4-15.3H443v25.2h9.9c1.7,0,2.2,0.5,2.2,2.2v18.1c-4.2-3.8-12.5-8.9-26.8-8.9
	c-27.9,0-47.4,22.3-47.4,54.2c0,32.4,18.7,54.2,46.4,54.2c15.9,0,25-7.4,29.5-12.5c0.6,4.5,3.5,10.1,14.2,10.1h25v-25h-9.7
	C484.7,126.6,484.1,125.9,484.1,124.4L484.1,124.4z M432.9,128.9c-13.7,0-22.5-11.4-22.5-29.1c0-17.2,9.2-28.7,22.9-28.7
	c15.5,0,22.5,14.3,22.5,28.6C455.8,121.2,443.9,128.9,432.9,128.9z M560,46.6c-12,0-23,6.9-29.5,17.9v-2.4c0-9.4-5.2-14.2-15.4-14.2
	h-24.7v25.2h9.9c1.7,0,2.2,0.5,2.2,2.2v76.3h28.7v-41.5c0-5.5,0.7-10.7,2.1-15.6c4.3-14.3,15.8-19.4,25.1-19.4
	c3.3,0,5.7,0.3,5.7,0.4l2.4,0.4V47.3l-1.8-0.3C564.7,47,562.3,46.6,560,46.6L560,46.6z M607.5,124.4V63.3c0-10.3-4.9-15.3-15.2-15.3
	h-23.2v25.2h7.4c1.7,0,2.2,0.5,2.2,2.2v60.9c0,10.5,4.8,15.3,15.2,15.3h25.7v-25h-9.9C608.1,126.6,607.5,125.9,607.5,124.4
	L607.5,124.4z"/>
<path class="st0" d="M716,47.9h-15.3c-9,0-13.8,3.1-16.6,10.7l-18.7,52.3c-0.6,1.9-1.3,4.1-1.8,6.2c-0.5-2.1-1.2-4.3-1.9-6.2
	L643,58.6c-2.9-7.7-7.5-10.7-16.6-10.7H610v25.2h4.2c2.2,0,3,0.8,3.5,2.2l29,76.3H679l29-76.3c0.5-1.4,1.3-2.2,3.5-2.2h4.4L716,47.9
	L716,47.9z M765.5,45.6c-31,0-52.6,22.3-52.6,54.2c0,31.4,23.3,54.2,55.6,54.2c25.3,0,40.8-15,41.5-15.6l1.2-1.1l-12.5-20.8
	l-1.9,1.8c-0.1,0.1-11.5,10.6-26.5,10.6c-14.4,0-25-8.8-27.5-22.6H811l0.2-1.9c0-0.3,0.6-6.4,0.6-9.4
	C811.7,65.4,793.1,45.6,765.5,45.6z M743.8,84.8c3.1-10.2,10.9-15.9,21.7-15.9c8.7,0,15.3,6.6,16.5,15.9H743.8z M130.2,8.9h25.6v27
	h-25.6L130.2,8.9z M579.9,8.9h25.6v27h-25.6V8.9z M811.2,47.9h3.8v10.4h2.8V47.9h3.9v-2.3h-10.5V47.9z M832.9,45.6l-2.8,8.8l-3-8.8
	h-4v12.7h2.7v-8.9l3.1,8.9h2.2l3.1-9v9h2.6V45.6H832.9z"/>
</svg>
