<?xml version="1.0" encoding="utf-8"?>
<!-- Generator: Adobe Illustrator 19.2.1, SVG Export Plug-In . SVG Version: 6.00 Build 0)  -->
<svg version="1.1"
	 id="svg2" xmlns:cc="http://creativecommons.org/ns#" xmlns:dc="http://purl.org/dc/elements/1.1/" xmlns:rdf="http://www.w3.org/1999/02/22-rdf-syntax-ns#" xmlns:svg="http://www.w3.org/2000/svg"
	 xmlns="http://www.w3.org/2000/svg" xmlns:xlink="http://www.w3.org/1999/xlink" x="0px" y="0px" viewBox="0 0 968.9 1133.9"
	 style="enable-background:new 0 0 968.9 1133.9;" xml:space="preserve">
<style type="text/css">
	.st0{clip-path:url(#SVGID_2_);}
	.st1{fill:#1AB4D7;}
	.st2{fill:#FFFFFF;}
</style>
<g id="g10" transform="matrix(1.3333333,0,0,-1.3333333,0,1133.8587)">
	<g id="g12">
		<g>
			<defs>
				<rect id="SVGID_1_" x="-265.5" y="-141.7" width="1133.9" height="1133.9"/>
			</defs>
			<clipPath id="SVGID_2_">
				<use xlink:href="#SVGID_1_"  style="overflow:visible;"/>
			</clipPath>
			<g id="g14" class="st0">
				<path id="path20" class="st1" d="M301.2,130.8c162.3,0,293.9,131.6,293.9,293.9c0,162.3-131.6,293.9-293.9,293.9
					S7.2,587.1,7.2,424.8C7.2,262.4,138.8,130.8,301.2,130.8"/>
				<path id="path22" class="st2" d="M148,425.6l50.2,50.3c1.7,1.7,2.6,3.9,2.6,6.3c0,5-4,9-9,9c-2.4,0-4.7-0.9-6.4-2.7
					c0,0-50.1-50.1-50.1-50.1l-50.3,50.2c-1.7,1.7-4,2.6-6.3,2.6c-5,0-9-4-9-9c0-2.4,1-4.7,2.7-6.4l50.2-50.1l-50.1-50.2
					c-1.8-1.7-2.7-4-2.7-6.4c0-5,4-9,9-9c2.4,0,4.6,0.9,6.3,2.6l50.3,50.2l50.1-50c1.8-1.8,4.1-2.8,6.5-2.8c5,0,9,4,9,9
					c0,2.4-0.9,4.6-2.6,6.3L148,425.6z"/>
				<path id="path24" class="st2" d="M446.2,425.6c0-9,7.3-16.3,16.3-16.3c9,0,16.3,7.3,16.3,16.3c0,9-7.3,16.3-16.3,16.3
					C453.5,442,446.2,434.6,446.2,425.6"/>
				<path id="path26" class="st2" d="M415.2,425.6c0,26.1,21.2,47.3,47.3,47.3c26.1,0,47.3-21.2,47.3-47.3
					c0-26.1-21.2-47.3-47.3-47.3C436.4,378.3,415.2,399.6,415.2,425.6 M396.6,425.6c0-36.3,29.6-65.9,65.9-65.9
					c36.3,0,65.9,29.6,65.9,65.9c0,36.3-29.6,65.9-65.9,65.9C426.1,491.5,396.6,462,396.6,425.6"/>
				<path id="path28" class="st2" d="M391.9,490.4l-2.8,0c-8.3,0-16.3-2.6-23-7.8c-0.9,4-4.5,7.1-8.8,7.1c-4.9,0-8.9-4-8.9-8.9
					c0,0,0-111,0-111c0-4.9,4-9,9-9c4.9,0,9,4,9,9c0,0,0,68.3,0,68.3c0,22.7,2.1,31.9,21.6,34.4c1.8,0.2,3.8,0.2,3.8,0.2
					c5.3,0.2,9.1,3.8,9.1,8.8C400.9,486.4,396.9,490.4,391.9,490.4"/>
				<path id="path30" class="st2" d="M219.3,436.5c0,0.2,0,0.5,0,0.8c5.2,20.6,23.9,35.9,46.1,35.9c22.5,0,41.4-15.6,46.3-36.6
					H219.3z M330.2,438.2c-3.9,18.3-13.9,33.4-29.2,43.1c-22.3,14.2-51.9,13.4-73.4-1.9c-17.6-12.5-27.8-33-27.8-54.1
					c0-5.3,0.6-10.6,2-15.9c6.6-26.2,29.1-45.9,55.9-49.2c8-1,15.7-0.5,23.7,1.6c6.9,1.7,13.6,4.5,19.7,8.4
					c6.4,4.1,11.7,9.5,16.9,16c0.1,0.1,0.2,0.2,0.3,0.3c3.6,4.4,2.9,10.8-1,13.8c-3.3,2.5-8.9,3.6-13.3-2c-0.9-1.3-2-2.7-3.1-4.1
					c-3.5-3.9-7.8-7.6-13-10.5c-6.6-3.5-14.1-5.5-22.1-5.6c-26.1,0.3-40.1,18.5-45.1,31.6c-0.9,2.4-1.5,5-2,7.6
					c-0.1,0.5-0.1,1-0.1,1.4c5.4,0,93.8,0,93.8,0C325.2,418.7,332.1,427.8,330.2,438.2"/>
			</g>
		</g>
	</g>
</g>
</svg>
