<?xml version="1.0" encoding="UTF-8" standalone="no"?>
<!-- Created with Inkscape (http://www.inkscape.org/) -->

<svg
   xmlns:dc="http://purl.org/dc/elements/1.1/"
   xmlns:cc="http://creativecommons.org/ns#"
   xmlns:rdf="http://www.w3.org/1999/02/22-rdf-syntax-ns#"
   xmlns:svg="http://www.w3.org/2000/svg"
   xmlns="http://www.w3.org/2000/svg"
   xmlns:sodipodi="http://sodipodi.sourceforge.net/DTD/sodipodi-0.dtd"
   xmlns:inkscape="http://www.inkscape.org/namespaces/inkscape"
   width="1000"
   height="146.08022"
   id="svg14508"
   version="1.1"
   inkscape:version="0.48.2 r9819"
   sodipodi:docname="New document 28">
  <defs
     id="defs14510">
    <clipPath
       clipPathUnits="userSpaceOnUse"
       id="clipPath14297">
      <path
         inkscape:connector-curvature="0"
         d="m 0,841.89 595.28,0 L 595.28,0 0,0 0,841.89 z"
         id="path14299" />
    </clipPath>
    <clipPath
       clipPathUnits="userSpaceOnUse"
       id="clipPath14285">
      <path
         inkscape:connector-curvature="0"
         d="m 22.68,22.171 549.921,0 0,17.595 -549.921,0 0,-17.595 z"
         id="path14287" />
    </clipPath>
    <clipPath
       clipPathUnits="userSpaceOnUse"
       id="clipPath14273">
      <path
         inkscape:connector-curvature="0"
         d="m 0,841.89 595.28,0 L 595.28,0 0,0 0,841.89 z"
         id="path14275" />
    </clipPath>
    <clipPath
       clipPathUnits="userSpaceOnUse"
       id="clipPath14261">
      <path
         inkscape:connector-curvature="0"
         d="m 22.68,22.171 549.921,0 0,17.595 -549.921,0 0,-17.595 z"
         id="path14263" />
    </clipPath>
    <clipPath
       clipPathUnits="userSpaceOnUse"
       id="clipPath14245">
      <path
         inkscape:connector-curvature="0"
         d="m 0,841.89 595.28,0 L 595.28,0 0,0 0,841.89 z"
         id="path14247" />
    </clipPath>
    <clipPath
       clipPathUnits="userSpaceOnUse"
       id="clipPath14209">
      <path
         inkscape:connector-curvature="0"
         d="m 22.68,22.171 549.921,0 0,17.595 -549.921,0 0,-17.595 z"
         id="path14211" />
    </clipPath>
    <clipPath
       clipPathUnits="userSpaceOnUse"
       id="clipPath14193">
      <path
         inkscape:connector-curvature="0"
         d="m 0,841.89 595.28,0 L 595.28,0 0,0 0,841.89 z"
         id="path14195" />
    </clipPath>
  </defs>
  <sodipodi:namedview
     id="base"
     pagecolor="#ffffff"
     bordercolor="#666666"
     borderopacity="1.0"
     inkscape:pageopacity="0.0"
     inkscape:pageshadow="2"
     inkscape:zoom="0.35"
     inkscape:cx="556.93536"
     inkscape:cy="-337.0748"
     inkscape:document-units="px"
     inkscape:current-layer="layer1"
     showgrid="false"
     fit-margin-left="0.5"
     fit-margin-bottom="0.5"
     fit-margin-top="0.5"
     fit-margin-right="0.5"
     inkscape:window-width="1058"
     inkscape:window-height="1036"
     inkscape:window-x="853"
     inkscape:window-y="-21"
     inkscape:window-maximized="0" />
  <metadata
     id="metadata14513">
    <rdf:RDF>
      <cc:Work
         rdf:about="">
        <dc:format>image/svg+xml</dc:format>
        <dc:type
           rdf:resource="http://purl.org/dc/dcmitype/StillImage" />
        <dc:title></dc:title>
      </cc:Work>
    </rdf:RDF>
  </metadata>
  <g
     inkscape:label="Layer 1"
     inkscape:groupmode="layer"
     id="layer1"
     transform="translate(181.93536,-49.20716)">
    <g
       transform="matrix(8.2457242,0,0,-8.2457242,-368.44838,377.60333)"
       id="g14189"
       style="fill:#272338;fill-opacity:1">
      <g
         id="g14191"
         clip-path="url(#clipPath14193)"
         style="fill:#272338;fill-opacity:1">
        <g
           id="g14197"
           transform="translate(47.541,33.5396)"
           style="fill:#272338;fill-opacity:1">
          <path
             inkscape:connector-curvature="0"
             d="m 0,0 -0.16,-0.159 0,-10.886 0.16,-0.158 7.522,0 0.162,0.158 0,1.601 -0.162,0.16 -5.281,0 -0.16,0.161 0,2.561 0.16,0.16 4.962,0 0.16,0.16 0,1.6 -0.16,0.161 -4.962,0 -0.16,0.159 0,2.241 0.16,0.16 5.281,0 0.162,0.16 0,1.602 L 7.522,0 0,0 z"
             style="fill:#272338;fill-opacity:1;fill-rule:nonzero;stroke:none"
             id="path14199" />
        </g>
        <g
           id="g14201"
           transform="translate(62.4814,30.1392)"
           style="fill:#272338;fill-opacity:1">
          <path
             inkscape:connector-curvature="0"
             d="M 0,0 -0.345,-0.155 -2.412,-2.5 -2.585,-2.5 -4.652,-0.155 -4.997,0 -6.03,0 l -0.173,-0.155 0,-1.563 1.895,-2.031 0,-0.157 -2.067,-2.187 0,-1.564 0.172,-0.156 1.034,0 0.346,0.156 2.238,2.501 0.173,0 2.239,-2.501 0.345,-0.156 1.033,0 0.173,0.156 0,1.564 -2.066,2.187 0,0.157 1.893,2.031 0,1.563 L 1.032,0 0,0 z"
             style="fill:#272338;fill-opacity:1;fill-rule:nonzero;stroke:none"
             id="path14203" />
        </g>
      </g>
    </g>
    <g
       transform="matrix(8.2457242,0,0,-8.2457242,-368.44838,377.60333)"
       id="g14205"
       style="fill:#272338;fill-opacity:1">
      <g
         id="g14207"
         clip-path="url(#clipPath14209)"
         style="fill:#272338;fill-opacity:1">
        <g
           id="g14213"
           transform="translate(76.7881,25.6079)"
           style="fill:#272338;fill-opacity:1">
          <path
             inkscape:connector-curvature="0"
             d="m 0,0 -0.155,-0.156 -4.846,0 -0.154,-0.156 c 0,-0.313 0.31,-1.25 1.561,-1.25 0.469,0 0.937,0.155 1.094,0.469 l 0.156,0.156 1.874,0 0.157,-0.156 c -0.157,-0.938 -0.937,-2.345 -3.281,-2.345 -2.657,0 -3.907,1.876 -3.907,4.063 0,2.188 1.25,4.062 3.751,4.062 C -1.25,4.687 0,2.813 0,0.625 L 0,0 z m -2.344,1.562 c 0,0.156 -0.156,1.251 -1.406,1.251 -1.251,0 -1.405,-1.095 -1.405,-1.251 l 0.154,-0.154 2.501,0 0.156,0.154 z"
             style="fill:#272338;fill-opacity:1;fill-rule:nonzero;stroke:none"
             id="path14215" />
        </g>
        <g
           id="g14217"
           transform="translate(82.623,28.2642)"
           style="fill:#272338;fill-opacity:1">
          <path
             inkscape:connector-curvature="0"
             d="m 0,0 -1.095,0 c -1.249,0 -1.719,-0.625 -1.719,-2.031 l 0,-3.751 -0.155,-0.155 -1.875,0 -0.157,0.155 0,7.502 0.157,0.155 1.718,0 0.157,-0.155 0.155,-0.47 0.158,0 c 0,0 0.312,0.625 1.719,0.625 L 0,1.875 0.156,1.72 0.156,0.156 0,0 z"
             style="fill:#272338;fill-opacity:1;fill-rule:nonzero;stroke:none"
             id="path14219" />
        </g>
        <g
           id="g14221"
           transform="translate(90.5195,22.1714)"
           style="fill:#272338;fill-opacity:1">
          <path
             inkscape:connector-curvature="0"
             d="m 0,0 c -2.344,0 -3.906,1.561 -3.906,4.062 0,2.5 1.562,4.063 3.906,4.063 2.344,0 3.907,-1.563 3.907,-4.063 C 3.907,1.561 2.344,0 0,0 m 0,6.249 c -1.094,0 -1.719,-0.781 -1.719,-2.187 0,-1.407 0.625,-2.188 1.719,-2.188 1.094,0 1.719,0.781 1.719,2.188 0,1.406 -0.625,2.187 -1.719,2.187"
             style="fill:#272338;fill-opacity:1;fill-rule:nonzero;stroke:none"
             id="path14223" />
        </g>
        <g
           id="g14225"
           transform="translate(102.4736,22.3267)"
           style="fill:#272338;fill-opacity:1">
          <path
             inkscape:connector-curvature="0"
             d="m 0,0 -1.876,0 -0.154,0.155 0,4.533 c 0,0.782 -0.314,1.407 -1.25,1.407 -1.095,0 -1.721,-0.625 -1.721,-2.033 l 0,-3.907 L -5.155,0 l -1.877,0 -0.156,0.155 0,7.502 0.156,0.155 1.719,0 0.158,-0.155 0.154,-0.47 0.157,0 c 0.312,0.314 0.937,0.783 2.031,0.783 1.876,0 2.969,-1.251 2.969,-3.126 l 0,-4.689 L 0,0 z"
             style="fill:#272338;fill-opacity:1;fill-rule:nonzero;stroke:none"
             id="path14227" />
        </g>
        <g
           id="g14229"
           transform="translate(66.8721,28.2642)"
           style="fill:#272338;fill-opacity:1">
          <path
             inkscape:connector-curvature="0"
             d="m 0,0 1.719,0 0.155,0.156 0,1.564 -0.155,0.155 -1.719,0 -0.157,0.157 0,1.406 -0.155,0.156 -1.875,0 -0.158,-0.156 0,-0.549 0,-0.857 0,-2.187 0,-1.993 0,-1.445 c 0,-1.719 1.25,-2.344 2.657,-2.344 l 1.407,0 0.155,0.155 0,1.563 -0.155,0.157 -1.407,0 c -0.312,0 -0.469,0.156 -0.469,0.469 l 0,3.438 L 0,0 z"
             style="fill:#272338;fill-opacity:1;fill-rule:nonzero;stroke:none"
             id="path14231" />
        </g>
        <g
           id="g14233"
           transform="translate(124.0645,25.686)"
           style="fill:#272338;fill-opacity:1">
          <path
             inkscape:connector-curvature="0"
             d="m 0,0 -0.158,-0.155 -4.844,0 -0.156,-0.157 c 0,-0.313 0.312,-1.25 1.563,-1.25 0.468,0 0.937,0.156 1.093,0.468 l 0.157,0.157 1.876,0 0.156,-0.157 c -0.156,-0.937 -0.937,-2.344 -3.282,-2.344 -2.657,0 -3.907,1.876 -3.907,4.062 0,2.189 1.25,4.063 3.752,4.063 C -1.25,4.687 0,2.813 0,0.624 L 0,0 z m -2.345,1.563 c 0,0.155 -0.157,1.25 -1.405,1.25 -1.252,0 -1.408,-1.095 -1.408,-1.25 l 0.156,-0.157 2.5,0 0.157,0.157 z"
             style="fill:#272338;fill-opacity:1;fill-rule:nonzero;stroke:none"
             id="path14235" />
        </g>
        <g
           id="g14237"
           transform="translate(128.168,30.3735)"
           style="fill:#272338;fill-opacity:1">
          <path
             inkscape:connector-curvature="0"
             d="m 0,0 c 1.404,0 2.029,-0.781 2.029,-0.781 l 0.157,0 0,3.594 0.157,0.156 1.875,0 0.155,-0.156 0,-10.625 -0.155,-0.157 -1.72,0 -0.155,0.157 -0.157,0.468 -0.157,0 c 0,0 -0.625,-0.781 -2.029,-0.781 -1.877,0 -3.439,1.563 -3.439,4.063 C -3.439,-1.562 -1.877,0 0,0 m 0.467,-6.25 c 1.25,0 1.719,0.938 1.719,2.188 0,1.249 -0.469,2.187 -1.719,2.187 -1.249,0 -1.719,-0.938 -1.719,-2.187 0,-1.25 0.47,-2.188 1.719,-2.188"
             style="fill:#272338;fill-opacity:1;fill-rule:nonzero;stroke:none"
             id="path14239" />
        </g>
      </g>
    </g>
    <g
       transform="matrix(8.2457242,0,0,-8.2457242,-368.44838,377.60333)"
       id="g14241"
       style="fill:#272338;fill-opacity:1">
      <g
         id="g14243"
         clip-path="url(#clipPath14245)"
         style="fill:#272338;fill-opacity:1">
        <g
           id="g14249"
           transform="translate(133.9658,33.3433)"
           style="fill:#272338;fill-opacity:1">
          <path
             inkscape:connector-curvature="0"
             d="m 0,0 -0.158,-0.157 0,-1.563 0.158,-0.155 1.875,0 0.155,0.155 0,1.563 L 1.875,0 0,0 z m 0,-3.125 -0.158,-0.156 0,-7.502 0.158,-0.156 1.875,0 0.155,0.156 0,7.502 -0.155,0.156 -1.875,0 z"
             style="fill:#272338;fill-opacity:1;fill-rule:nonzero;stroke:none"
             id="path14251" />
        </g>
        <g
           id="g14253"
           transform="translate(83.876,33.3433)"
           style="fill:#272338;fill-opacity:1">
          <path
             inkscape:connector-curvature="0"
             d="m 0,0 -0.157,-0.157 0,-1.563 0.157,-0.155 1.877,0 0.154,0.155 0,1.563 L 1.877,0 0,0 z m 0,-3.125 -0.157,-0.156 0,-7.502 0.157,-0.156 1.877,0 0.154,0.156 0,7.502 -0.154,0.156 -1.877,0 z"
             style="fill:#272338;fill-opacity:1;fill-rule:nonzero;stroke:none"
             id="path14255" />
        </g>
      </g>
    </g>
    <g
       transform="matrix(8.2457242,0,0,-8.2457242,-368.44838,377.60333)"
       id="g14257"
       style="fill:#272338;fill-opacity:1">
      <g
         id="g14259"
         clip-path="url(#clipPath14261)"
         style="fill:#272338;fill-opacity:1">
        <g
           id="g14265"
           transform="translate(143.6777,22.4048)"
           style="fill:#272338;fill-opacity:1">
          <path
             inkscape:connector-curvature="0"
             d="m 0,0 -1.719,0 -0.156,0.155 -0.156,0.313 -0.156,0 c 0,0 -0.625,-0.624 -1.719,-0.624 -1.719,0 -2.813,0.936 -2.813,2.5 0,2.343 2.188,2.656 3.438,2.656 0.625,0 1.094,-0.155 1.094,-0.155 L -2.031,5 l 0,0.155 c 0,0.782 -0.156,0.939 -1.094,0.939 -0.468,0 -0.937,0 -1.094,-0.469 l -0.156,-0.155 -1.875,0 -0.156,0.155 c 0,0.937 0.781,2.344 3.281,2.344 2.502,0 3.281,-1.249 3.281,-3.593 l 0,-4.221 L 0,0 z m -2.187,3.281 c 0,0 -0.313,0.157 -0.938,0.157 -0.937,0 -1.406,-0.312 -1.406,-0.937 0,-0.471 0.312,-0.782 1.093,-0.782 0.782,0 1.407,0.468 1.407,1.093 l 0,0.314 -0.156,0.155 z"
             style="fill:#272338;fill-opacity:1;fill-rule:nonzero;stroke:none"
             id="path14267" />
        </g>
      </g>
    </g>
    <g
       transform="matrix(8.2457242,0,0,-8.2457242,-368.44838,377.60333)"
       id="g14269"
       style="fill:#272338;fill-opacity:1">
      <g
         id="g14271"
         clip-path="url(#clipPath14273)"
         style="fill:#272338;fill-opacity:1">
        <g
           id="g14277"
           transform="translate(113.1943,33.5396)"
           style="fill:#272338;fill-opacity:1">
          <path
             inkscape:connector-curvature="0"
             d="m 0,0 -0.159,-0.159 -3.201,-7.844 -0.162,0 -3.201,7.844 -0.16,0.159 -2.401,0 -0.16,-0.159 0,-10.886 0.16,-0.158 1.92,0 0.162,0.158 0,6.244 0.159,0 2.562,-6.244 0.16,-0.158 1.759,0 0.163,0.158 2.558,6.244 0.161,0 0,-6.244 0.159,-0.158 1.921,0 0.162,0.158 0,10.886 L 2.4,0 0,0 z"
             style="fill:#272338;fill-opacity:1;fill-rule:nonzero;stroke:none"
             id="path14279" />
        </g>
      </g>
    </g>
    <g
       transform="matrix(8.2457242,0,0,-8.2457242,-368.44838,377.60333)"
       id="g14281"
       style="fill:#df004a;fill-opacity:1">
      <g
         id="g14283"
         clip-path="url(#clipPath14285)"
         style="fill:#df004a;fill-opacity:1">
        <g
           id="g14289"
           transform="translate(34.8848,34.0356)"
           style="fill:#df004a;fill-opacity:1">
          <path
             inkscape:connector-curvature="0"
             d="m 0,0 0,-6.616 8.442,0 0,12.346 -20.647,0 0,-5.217 11.693,0 C -0.229,0.513 0,0.282 0,0"
             style="fill:#df004a;fill-opacity:1;fill-rule:nonzero;stroke:none"
             id="path14291" />
        </g>
      </g>
    </g>
    <g
       transform="matrix(8.2457242,0,0,-8.2457242,-368.44838,377.60333)"
       id="g14293">
      <g
         id="g14295"
         clip-path="url(#clipPath14297)">
        <path
           inkscape:connector-curvature="0"
           d="m 34.886,22.341 8.44,0 0,4.054 -8.44,0 0,-4.054 z"
           style="fill:#9e9fa0;fill-opacity:1;fill-rule:nonzero;stroke:none"
           id="path14301" />
        <path
           inkscape:connector-curvature="0"
           d="m 22.68,22.341 11.182,0 0,11.182 -11.182,0 0,-11.182 z"
           style="fill:#272338;fill-opacity:1;fill-rule:nonzero;stroke:none"
           id="path14303" />
      </g>
    </g>
  </g>
</svg>
