<svg class="logo-svg" viewBox="0 0 176 33"  xmlns="http://www.w3.org/2000/svg" xmlns:xlink="http://www.w3.org/1999/xlink">
    <style>
        .logo-svg { fill: #13A0DD;}
        .logo-svg-text { display: inherit; }
        @media screen and (max-width: 175px) { .logo-svg-text { display: none; } }
    </style>
    <path class="logo-svg-sign" d="M11.2419118,0.514473684 C5.30994674,0.514473684 0.483823529,5.3725733 0.483823529,11.3433388 L0.483823529,11.3433388 C0.483823529,19.2195334 9.58673506,28.4727986 9.97425037,28.8628634 L9.97425037,28.8628634 C10.3243365,29.2152527 10.7831241,29.3914474 11.2419118,29.3914474 L11.2419118,29.3914474 C11.7006994,29.3914474 12.1599353,29.2152527 12.5100214,28.8628634 L12.5100214,28.8628634 C12.8970885,28.4727986 22,19.2195334 22,11.3433388 L22,11.3433388 C22,5.3725733 17.1738768,0.514473684 11.2419118,0.514473684 L11.2419118,0.514473684 Z M7.22264517,17.490299 L7.22264517,7.99406107 C7.22264517,7.03615771 7.99386562,6.25986344 8.94550818,6.25986344 L8.94550818,6.25986344 L13.6537407,6.25986344 C14.6053832,6.25986344 15.3766037,7.03615771 15.3766037,7.99406107 L15.3766037,7.99406107 L15.3766037,17.490299 C15.3766037,18.4475255 14.6053832,19.2235942 13.6537407,19.2235942 L13.6537407,19.2235942 L8.94550818,19.2235942 C7.99386562,19.2235942 7.22264517,18.4475255 7.22264517,17.490299 L7.22264517,17.490299 Z"></path>
    <path class="logo-svg-text" d="M43.1265682,21.5846256 C43.1265682,20.6826191 42.7920379,19.9441743 42.1229672,19.3692691 C41.4538964,18.7943639 40.2718892,18.2789394 38.57691,17.8229801 C36.1583433,17.1886019 34.2973633,16.348559 32.9939144,15.3028262 C31.6904655,14.2570935 31.0387509,12.8867581 31.0387509,11.1917789 C31.0387509,9.44723891 31.7598496,8.00999743 33.2020687,6.88001131 C34.6442879,5.75002519 36.5052678,5.1850406 38.7850643,5.1850406 C41.1639825,5.1850406 43.0745225,5.82436527 44.5167416,7.10303377 C45.9589607,8.38170227 46.6552794,9.91806386 46.6057186,11.7121646 L46.5759823,11.8013736 L43.1117001,11.8013736 C43.1117001,10.6912118 42.7350437,9.79169688 41.9817196,9.10280183 C41.2283955,8.41390679 40.1529424,8.06946443 38.755328,8.06946443 C37.4370109,8.06946443 36.4235078,8.35691273 35.7147885,8.93181795 C35.0060691,9.50672317 34.6517147,10.2501239 34.6517147,11.1620426 C34.6517147,11.9847517 35.0358051,12.6686805 35.8039974,13.2138492 C36.5721898,13.7590179 37.8434051,14.2744425 39.6176815,14.7601383 C41.9470389,15.3846043 43.7163327,16.2469492 44.9256161,17.3471988 C46.1348995,18.4474484 46.7395321,19.8499979 46.7395321,21.5548892 C46.7395321,23.3589022 46.0184334,24.7936656 44.5762142,25.8592227 C43.1339951,26.9247798 41.2383232,27.4575504 38.8891415,27.4575504 C36.6291692,27.4575504 34.6467672,26.8603518 32.9418759,25.6659366 C31.2369845,24.4715214 30.4093317,22.8335618 30.4588925,20.7520084 L30.4886288,20.6627994 L33.9677792,20.6627994 C33.9677792,21.9811165 34.4237317,22.9648835 35.3356503,23.61413 C36.2475689,24.2633764 37.4320541,24.5879947 38.8891415,24.5879947 C40.2272829,24.5879947 41.268044,24.3178924 42.0114559,23.7776798 C42.7548679,23.2374671 43.1265682,22.5064563 43.1265682,21.5846256 Z M54.3669003,27.1453189 L50.7539364,27.1453189 L50.7539364,5.49727205 L54.3669003,5.49727205 L54.3669003,27.1453189 Z M75.4350888,24.2162906 C74.8601835,25.0389998 73.9160646,25.7848786 72.6027035,26.4539493 C71.2893424,27.12302 69.6018227,27.4575504 67.5400936,27.4575504 C64.9331958,27.4575504 62.7872456,26.6323755 61.1021786,24.9820011 C59.4171116,23.3316266 58.5745907,21.1980664 58.5745907,18.5812564 L58.5745907,14.0613345 C58.5745907,11.4445246 59.3700295,9.31096438 60.960931,7.66058992 C62.5518325,6.01021546 64.6060967,5.1850406 67.123785,5.1850406 C69.6712099,5.1850406 71.6511339,5.81197525 73.0636166,7.06586336 C74.4760992,8.31975146 75.197198,9.95275515 75.2269345,11.9649234 L75.1971981,12.0541324 L71.7775204,12.0541324 C71.6982231,10.8646733 71.2744847,9.90568634 70.5062924,9.17714266 C69.7381,8.44859897 68.6254769,8.0843326 67.1683895,8.0843326 C65.6716535,8.0843326 64.4648663,8.64436118 63.5479916,9.76443514 C62.6311169,10.8845091 62.1726864,12.3068826 62.1726864,14.0315982 L62.1726864,18.5812564 C62.1726864,20.3257964 62.6707649,21.7605599 63.6669369,22.8855899 C64.6631089,24.01062 65.9541482,24.5731265 67.5400936,24.5731265 C68.6700798,24.5731265 69.5869407,24.4417924 70.290704,24.1791202 C70.9944673,23.916448 71.5049358,23.6066977 71.8221249,23.2498599 L71.8221249,18.8488834 L67.5252255,18.8488834 L67.5252255,16.1428775 L75.4350888,16.1428775 L75.4350888,24.2162906 Z M96.7709042,27.1453189 L93.1728085,27.1453189 L83.5679745,11.3404605 L83.4787655,11.3701969 L83.4787655,27.1453189 L79.8658016,27.1453189 L79.8658016,5.49727205 L83.4787655,5.49727205 L93.0835995,21.2872623 L93.1728085,21.257526 L93.1728085,5.49727205 L96.7709042,5.49727205 L96.7709042,27.1453189 Z M107.624664,17.7783756 L105.126812,17.7783756 L105.126812,27.1453189 L101.513849,27.1453189 L101.513849,5.49727205 L105.126812,5.49727205 L105.126812,14.6709293 L107.193487,14.6709293 L113.988238,5.49727205 L118.270269,5.49727205 L110.390142,15.8306461 L118.879864,27.1453189 L114.464019,27.1453189 L107.624664,17.7783756 Z M124.960943,27.1453189 L121.347979,27.1453189 L121.347979,5.49727205 L124.960943,5.49727205 L124.960943,27.1453189 Z M145.687164,19.9639957 L145.7169,20.0532047 C145.756549,22.2437918 145.045362,24.0254756 143.583319,25.3983096 C142.121275,26.7711437 140.141351,27.4575504 137.643487,27.4575504 C135.115887,27.4575504 133.061623,26.6075955 131.480633,24.9076602 C129.899644,23.207725 129.109161,21.0345167 129.109161,18.3879703 L129.109161,14.2694888 C129.109161,11.6328546 129.889732,9.45964632 131.450897,7.74979891 C133.012062,6.03995149 135.041546,5.1850406 137.53941,5.1850406 C140.096747,5.1850406 142.111363,5.8565793 143.583319,7.19967683 C145.055274,8.54277437 145.771417,10.3492382 145.731768,12.6191226 L145.702032,12.7083316 L142.208014,12.7083316 C142.208014,11.2512443 141.814011,10.1163191 141.025995,9.30352205 C140.237978,8.49072502 139.075795,8.0843326 137.53941,8.0843326 C136.062498,8.0843326 134.890403,8.6691412 134.023089,9.83877596 C133.155775,11.0084107 132.722125,12.4753882 132.722125,14.2397525 L132.722125,18.3879703 C132.722125,20.1721589 133.165687,21.6490484 134.052826,22.8186832 C134.939964,23.9883179 136.136839,24.5731265 137.643487,24.5731265 C139.140223,24.5731265 140.275148,24.1716901 141.048297,23.3688053 C141.821445,22.5659204 142.208014,21.4309952 142.208014,19.9639957 L145.687164,19.9639957 Z M155.366339,17.7783756 L152.868487,17.7783756 L152.868487,27.1453189 L149.255523,27.1453189 L149.255523,5.49727205 L152.868487,5.49727205 L152.868487,14.6709293 L154.935162,14.6709293 L161.729913,5.49727205 L166.011944,5.49727205 L158.131817,15.8306461 L166.621539,27.1453189 L162.205694,27.1453189 L155.366339,17.7783756 Z"></path>
</svg>